<?xml version="1.0" standalone="no"?>
<!DOCTYPE svg PUBLIC "-//W3C//DTD SVG 20010904//EN"
 "http://www.w3.org/TR/2001/REC-SVG-20010904/DTD/svg10.dtd">
<svg version="1.0" xmlns="http://www.w3.org/2000/svg"
 width="1989.000000pt" height="1989.000000pt" viewBox="0 0 1989.000000 1989.000000"
 preserveAspectRatio="xMidYMid meet">
<metadata>
Created by potrace 1.16, written by Peter Selinger 2001-2019
</metadata>
<g transform="translate(0.000000,1989.000000) scale(0.100000,-0.100000)"
fill="#000000" stroke="none">
<path d="M4944 18775 c-4 -9 -2 -21 4 -27 15 -15 44 -1 40 19 -4 23 -36 29
-44 8z"/>
<path d="M12680 18271 c-63 -4 -128 -13 -143 -19 -16 -7 -47 -12 -70 -12 -23
-1 -53 -7 -67 -15 -14 -8 -41 -15 -60 -15 -19 0 -44 -7 -54 -15 -11 -8 -33
-15 -48 -15 -16 0 -36 -4 -46 -10 -24 -14 -101 -41 -134 -47 -15 -3 -33 -11
-39 -19 -6 -8 -20 -14 -29 -14 -10 0 -31 -6 -47 -14 -15 -8 -57 -29 -93 -46
-93 -46 -172 -91 -188 -107 -7 -7 -17 -13 -22 -13 -9 0 -81 -48 -158 -105
-139 -104 -423 -383 -489 -481 -15 -21 -33 -45 -40 -52 -14 -15 -134 -196
-153 -232 -7 -14 -16 -27 -19 -30 -12 -10 -131 -256 -131 -271 0 -8 -7 -24
-15 -35 -8 -10 -15 -28 -15 -40 0 -11 -7 -29 -15 -40 -8 -10 -15 -31 -15 -45
0 -14 -7 -34 -15 -45 -8 -10 -15 -32 -15 -49 0 -16 -7 -43 -15 -59 -8 -15 -15
-42 -15 -60 -1 -17 -7 -49 -15 -71 -8 -22 -15 -63 -15 -91 0 -28 -7 -73 -15
-100 -21 -69 -21 -542 0 -629 8 -33 15 -79 15 -101 0 -23 7 -58 15 -77 8 -20
15 -54 15 -76 0 -21 7 -52 15 -67 8 -16 15 -42 15 -59 0 -16 7 -39 15 -49 8
-11 15 -31 15 -45 0 -14 7 -35 15 -45 8 -11 15 -28 15 -37 0 -10 6 -30 14 -46
8 -15 22 -48 32 -73 26 -70 75 -168 121 -247 24 -39 43 -76 43 -82 0 -6 4 -11
8 -11 5 0 15 -15 24 -32 9 -18 23 -42 32 -53 8 -11 32 -42 53 -70 99 -133 130
-169 254 -294 81 -81 186 -173 266 -233 73 -54 135 -98 137 -98 3 0 24 -13 48
-29 24 -16 61 -39 83 -50 67 -37 74 -41 93 -51 9 -6 24 -13 32 -16 8 -3 42
-18 75 -34 33 -16 72 -32 88 -36 15 -3 30 -10 33 -15 3 -5 13 -9 22 -9 9 0 30
-7 46 -15 15 -8 38 -15 50 -15 11 -1 32 -7 46 -15 14 -8 36 -14 50 -15 14 0
38 -7 54 -15 15 -8 43 -15 62 -15 18 0 53 -6 76 -14 24 -8 75 -16 115 -19 40
-3 81 -11 92 -16 31 -17 472 -14 546 4 33 8 81 15 106 15 26 0 63 7 82 15 20
8 52 15 70 15 19 0 51 7 70 15 20 8 49 15 65 15 15 0 33 5 39 11 6 6 29 15 50
19 39 8 86 24 138 46 139 59 237 106 310 149 33 19 67 38 75 42 8 4 44 27 80
52 36 24 79 54 95 65 177 121 392 337 537 540 49 70 151 231 179 286 13 25 27
46 31 48 4 2 8 10 8 18 0 7 13 40 29 71 16 32 36 78 46 103 9 25 23 60 31 78
8 18 14 41 14 50 0 10 7 27 15 38 8 10 15 33 15 49 0 17 7 41 15 55 8 14 15
41 15 60 0 19 7 46 15 60 8 14 14 42 15 63 0 21 7 54 15 74 8 19 15 61 15 93
0 32 7 94 15 137 9 47 15 136 15 223 0 87 -6 176 -15 223 -8 43 -15 105 -15
137 0 32 -7 74 -15 93 -8 20 -15 54 -15 75 0 21 -5 43 -10 48 -6 6 -15 33 -20
60 -13 73 -31 136 -46 166 -8 14 -14 35 -14 46 0 12 -4 23 -9 26 -5 3 -12 18
-15 33 -4 16 -13 42 -21 58 -36 79 -141 291 -147 300 -16 21 -75 113 -81 126
-11 23 -77 110 -158 210 -114 140 -323 334 -434 405 -16 10 -32 21 -35 24 -8
10 -148 99 -215 136 -55 32 -163 84 -172 84 -6 0 -16 7 -23 15 -7 8 -22 15
-34 15 -12 0 -31 7 -42 15 -10 8 -28 15 -40 15 -11 0 -29 7 -40 15 -10 8 -28
15 -40 15 -11 0 -29 7 -40 15 -10 8 -33 15 -50 15 -16 0 -39 7 -50 15 -10 8
-35 15 -54 15 -19 0 -48 7 -64 15 -15 8 -48 15 -72 15 -25 0 -61 7 -81 15 -42
18 -479 28 -673 16z m533 -466 c32 -8 74 -15 93 -15 19 0 51 -7 71 -15 19 -8
49 -15 65 -15 16 0 39 -5 51 -12 12 -6 35 -15 52 -19 69 -17 108 -33 265 -108
156 -75 202 -103 349 -213 137 -104 245 -205 311 -294 21 -28 45 -57 52 -65
65 -65 224 -339 276 -474 13 -33 30 -75 38 -93 8 -18 14 -43 14 -55 0 -12 7
-31 15 -41 8 -11 15 -35 15 -54 0 -18 5 -43 11 -55 7 -11 15 -50 20 -86 5 -36
13 -86 18 -111 13 -58 13 -468 0 -540 -6 -30 -14 -86 -18 -123 -5 -38 -13 -73
-20 -80 -6 -6 -11 -29 -11 -52 0 -23 -7 -50 -15 -61 -8 -10 -15 -33 -15 -50 0
-16 -7 -39 -15 -50 -8 -10 -15 -26 -15 -34 0 -8 -6 -27 -14 -41 -7 -14 -16
-37 -20 -52 -3 -15 -11 -27 -16 -27 -6 0 -10 -7 -10 -16 0 -9 -6 -28 -14 -42
-8 -15 -24 -48 -37 -74 -13 -27 -27 -48 -31 -48 -5 0 -8 -8 -8 -18 0 -10 -7
-27 -15 -37 -8 -11 -35 -51 -61 -90 -57 -85 -174 -232 -240 -300 -88 -91 -266
-229 -384 -298 -36 -21 -72 -42 -80 -47 -51 -30 -154 -80 -165 -80 -7 0 -18
-7 -25 -15 -7 -8 -22 -15 -34 -15 -11 0 -30 -7 -40 -15 -11 -8 -31 -15 -45
-15 -14 0 -35 -7 -45 -15 -11 -8 -34 -15 -52 -15 -17 0 -45 -7 -60 -15 -16 -8
-46 -15 -67 -15 -21 0 -48 -5 -60 -12 -26 -14 -226 -32 -357 -31 -137 0 -331
17 -357 31 -12 7 -41 12 -65 12 -24 0 -53 7 -64 15 -10 8 -33 15 -50 15 -16 0
-39 7 -50 15 -10 8 -27 15 -36 15 -10 0 -34 7 -55 16 -21 9 -51 22 -68 29 -44
18 -234 113 -275 137 -51 30 -153 100 -169 116 -8 8 -32 25 -53 38 -94 59
-268 251 -426 469 -18 26 -82 134 -82 140 0 3 -7 13 -15 21 -8 9 -15 24 -15
33 0 10 -7 24 -15 31 -8 7 -15 18 -15 25 0 8 -8 28 -17 47 -9 18 -22 45 -30
60 -7 14 -13 33 -13 41 0 8 -7 28 -15 43 -8 16 -15 36 -15 45 0 9 -7 30 -15
45 -8 16 -15 41 -15 55 0 15 -7 40 -15 55 -8 16 -15 49 -15 74 0 25 -7 68 -16
95 -23 73 -23 578 0 645 9 25 16 65 16 90 0 25 7 58 15 74 8 15 15 40 15 55 0
15 7 36 15 47 8 10 15 31 15 45 0 14 7 34 15 45 8 10 15 27 15 37 0 11 6 31
14 45 7 15 30 61 50 102 85 177 188 338 281 441 112 124 296 297 360 337 22
14 42 28 45 31 3 3 34 23 70 44 36 21 72 42 80 47 52 31 214 110 225 110 7 0
27 7 44 15 17 8 45 22 62 30 17 8 41 15 54 15 12 0 36 7 51 15 16 8 43 15 59
15 17 1 41 7 55 15 14 8 45 15 70 15 25 0 65 7 90 14 66 21 454 22 533 1z"/>
<path d="M12740 17300 c0 -3 -3 -277 -6 -610 -5 -604 -5 -604 -69 -672 -36
-37 -65 -74 -65 -81 0 -7 -7 -22 -15 -33 -10 -14 -14 -47 -14 -124 0 -77 4
-110 14 -124 8 -11 15 -26 15 -33 0 -41 133 -173 174 -173 7 0 21 -7 32 -15
22 -17 219 -22 229 -5 12 20 49 9 99 -28 28 -21 67 -48 86 -59 20 -12 46 -33
59 -47 14 -14 29 -26 34 -26 5 0 26 -12 46 -27 20 -16 45 -33 56 -40 11 -7 40
-24 65 -39 25 -15 51 -34 58 -41 8 -7 27 -20 43 -29 17 -8 41 -24 54 -36 13
-11 33 -26 44 -32 11 -6 53 -33 93 -61 40 -27 78 -52 83 -54 6 -2 29 -19 53
-38 42 -34 72 -38 72 -9 0 8 16 35 35 60 19 26 35 49 35 52 0 5 21 34 100 136
23 30 20 68 -7 68 -8 0 -32 12 -52 28 -20 15 -44 32 -53 37 -23 13 -88 59
-173 121 -38 28 -115 81 -170 119 -55 37 -110 77 -122 88 -12 11 -31 25 -42
31 -25 14 -85 55 -173 120 -68 49 -68 49 -68 113 0 49 -5 72 -24 101 -12 20
-26 46 -30 57 -4 11 -29 37 -57 58 -49 37 -49 37 -50 370 -1 182 -4 455 -8
605 -6 273 -6 273 -193 275 -104 1 -188 0 -188 -3z"/>
<path d="M15320 17686 c0 -13 6 -26 13 -29 22 -7 37 4 37 29 0 19 -5 24 -25
24 -20 0 -25 -5 -25 -24z"/>
<path d="M7730 17509 c-25 -5 -81 -12 -125 -15 -44 -3 -97 -12 -118 -20 -20
-8 -57 -14 -81 -14 -24 0 -60 -7 -79 -15 -20 -8 -50 -15 -67 -15 -17 0 -41 -5
-53 -12 -12 -6 -40 -15 -62 -19 -22 -4 -56 -12 -75 -19 -19 -6 -48 -16 -65
-22 -16 -6 -43 -13 -60 -16 -16 -2 -39 -11 -50 -18 -11 -8 -29 -14 -40 -14
-11 0 -29 -7 -39 -15 -11 -8 -28 -15 -37 -15 -10 0 -30 -6 -46 -14 -15 -8 -44
-21 -63 -29 -19 -9 -77 -36 -128 -61 -92 -45 -95 -46 -195 -46 -56 -1 -129 -7
-162 -15 -33 -8 -83 -15 -111 -15 -28 0 -71 -7 -94 -15 -23 -8 -55 -15 -70
-15 -15 0 -41 -7 -56 -15 -16 -8 -42 -15 -59 -15 -16 -1 -41 -7 -55 -15 -14
-8 -36 -15 -50 -15 -14 0 -34 -7 -44 -15 -11 -8 -27 -15 -35 -15 -26 0 -199
-88 -287 -145 -86 -56 -160 -125 -175 -163 -13 -33 -2 -66 29 -89 50 -36 119
-48 275 -48 106 0 147 -3 147 -12 0 -6 -8 -14 -19 -18 -23 -7 -403 -390 -467
-470 -26 -33 -55 -68 -65 -77 -9 -9 -39 -45 -65 -80 -47 -61 -65 -83 -115
-140 -24 -27 -24 -27 -119 -18 -52 5 -108 13 -123 19 -44 17 -351 14 -417 -4
-30 -8 -69 -15 -86 -15 -40 0 -110 -34 -128 -63 -28 -42 -9 -76 103 -187 93
-93 150 -139 249 -202 15 -9 60 -33 100 -52 72 -35 81 -48 63 -84 -36 -73 -62
-149 -70 -202 -4 -25 -13 -56 -21 -70 -18 -34 -21 -436 -3 -471 7 -13 17 -36
23 -51 9 -26 14 -28 60 -28 79 0 117 29 246 188 61 77 99 129 162 222 54 81
54 81 94 157 51 97 95 161 121 174 12 7 38 25 58 40 20 16 45 29 55 29 11 0
28 7 38 15 11 8 37 15 59 15 21 0 47 5 57 10 11 6 47 13 81 17 61 6 61 6 147
-83 48 -49 102 -97 120 -106 63 -33 158 -18 211 32 33 31 69 107 85 180 8 36
84 70 156 70 30 0 73 7 95 15 22 8 60 14 85 15 25 0 56 7 70 15 14 8 42 14 63
15 21 0 47 5 58 11 11 6 41 14 67 19 62 12 133 30 154 41 28 14 28 -16 0 -48
-42 -47 -82 -140 -89 -210 -4 -32 0 -46 16 -62 18 -18 33 -21 110 -21 57 0
100 5 118 14 15 8 46 23 68 33 22 10 42 20 45 23 3 3 23 17 45 31 43 28 255
237 255 251 0 8 77 119 104 150 7 9 17 25 20 35 7 21 81 63 112 63 10 0 28 7
38 15 11 8 29 15 40 15 12 0 30 7 40 15 11 8 29 15 40 15 12 0 30 7 40 15 11
8 28 15 37 15 10 0 32 8 51 17 18 9 45 22 60 30 14 7 33 13 41 13 9 0 28 7 44
15 15 8 55 26 88 41 134 58 218 98 245 114 62 39 169 100 173 100 7 0 123 79
217 148 41 31 90 66 108 80 56 40 398 386 425 429 14 22 31 46 39 54 27 28 75
115 92 168 17 52 17 56 -1 95 -21 48 -106 133 -179 181 -62 40 -183 105 -196
105 -11 0 -67 23 -111 46 -16 8 -39 14 -51 14 -12 0 -31 7 -42 15 -10 8 -32
15 -49 15 -16 0 -43 7 -59 15 -15 8 -45 15 -65 15 -20 1 -54 7 -76 15 -22 8
-58 15 -80 15 -22 0 -69 7 -105 15 -74 16 -582 19 -660 4z m1062 -358 c13 -5
38 -24 56 -42 28 -28 32 -40 32 -84 0 -43 -4 -55 -27 -77 -48 -43 -85 -53
-136 -33 -53 20 -77 57 -77 118 0 51 22 86 72 110 38 19 48 20 80 8z"/>
<path d="M6360 13515 c-7 -8 -24 -15 -39 -15 -14 0 -35 -7 -45 -15 -11 -8 -30
-15 -42 -15 -12 0 -27 -7 -34 -15 -7 -8 -20 -15 -30 -15 -10 0 -23 -7 -30 -15
-7 -9 -30 -15 -54 -15 -43 -1 -86 -27 -86 -52 0 -8 -7 -23 -15 -34 -8 -10 -15
-31 -15 -45 0 -14 -7 -34 -15 -45 -8 -10 -15 -31 -15 -45 0 -15 -7 -32 -15
-39 -8 -7 -15 -25 -15 -39 0 -15 -7 -36 -15 -47 -8 -10 -15 -30 -15 -42 0 -13
-6 -36 -14 -50 -15 -30 -33 -81 -46 -127 -13 -48 -31 -98 -46 -128 -8 -16 -14
-39 -14 -51 0 -12 -7 -31 -15 -42 -8 -10 -15 -28 -15 -40 0 -11 -7 -29 -15
-40 -8 -10 -15 -30 -15 -42 0 -13 -6 -36 -14 -50 -15 -30 -33 -81 -46 -127
-13 -48 -31 -98 -46 -128 -8 -16 -14 -39 -14 -51 0 -12 -7 -31 -15 -42 -8 -10
-15 -28 -15 -39 0 -11 -7 -33 -15 -49 -8 -15 -15 -36 -15 -45 0 -10 -7 -26
-15 -37 -8 -10 -15 -29 -15 -40 0 -12 -6 -27 -14 -33 -10 -8 -378 -11 -1376
-11 -750 0 -1365 -2 -1368 -4 -4 -4 -3 -468 1 -472 1 -1 27 -4 57 -5 49 -4 55
-2 60 19 5 22 5 22 1395 25 765 2 1404 7 1422 11 18 5 38 14 44 22 6 8 17 14
25 14 32 0 95 81 129 165 9 22 23 53 31 68 8 16 14 39 14 51 0 12 7 31 15 42
8 10 15 28 15 39 0 11 6 29 14 40 7 11 16 34 18 50 7 36 25 89 44 128 8 16 14
35 14 44 0 8 6 29 13 46 18 43 37 95 47 132 13 48 31 98 46 128 8 16 14 36 14
45 0 9 7 30 15 46 8 15 15 35 15 43 0 8 6 29 13 46 18 43 37 95 47 132 13 48
31 98 46 128 8 16 14 39 14 51 0 12 7 31 15 42 8 10 15 30 15 44 0 14 6 34 14
45 7 11 17 35 21 53 7 32 7 32 447 30 440 -3 440 -3 459 -58 10 -30 19 -79 19
-110 0 -30 7 -77 15 -104 8 -27 15 -74 15 -103 0 -30 5 -63 10 -74 6 -11 15
-56 20 -102 4 -45 13 -100 19 -122 6 -22 11 -66 11 -98 0 -32 5 -67 11 -78 5
-11 13 -52 16 -92 3 -40 11 -94 19 -121 8 -27 14 -72 14 -100 0 -28 7 -69 15
-91 8 -22 14 -69 15 -106 0 -36 5 -70 11 -76 6 -6 13 -46 16 -89 2 -44 11 -96
19 -117 8 -20 14 -59 14 -85 0 -26 7 -65 15 -87 8 -22 14 -62 15 -90 0 -27 7
-68 15 -90 8 -22 14 -63 15 -91 0 -29 7 -65 15 -80 8 -16 15 -54 15 -84 0 -30
7 -73 15 -95 8 -22 14 -60 15 -85 0 -25 7 -67 15 -94 8 -27 15 -68 15 -91 0
-24 7 -59 15 -78 8 -20 15 -64 15 -97 0 -34 5 -71 12 -83 6 -12 15 -51 18 -87
4 -36 13 -81 20 -100 7 -19 17 -47 22 -62 12 -33 74 -97 118 -120 28 -16 67
-18 388 -18 311 0 362 2 397 17 41 17 105 87 105 115 0 8 7 23 15 34 8 10 15
30 15 44 0 14 7 36 15 50 8 14 14 39 15 56 0 16 7 39 15 50 8 10 15 30 15 44
0 14 7 38 15 54 8 15 15 41 15 57 0 15 6 43 14 61 14 35 31 93 47 168 5 24 14
49 19 54 6 6 10 26 10 46 0 20 7 45 15 56 8 10 15 33 15 49 0 17 7 43 15 59 8
15 15 40 15 55 1 14 7 37 15 51 8 14 15 41 15 60 0 19 7 46 15 60 8 14 14 39
15 56 0 16 7 39 15 50 8 10 15 35 15 54 0 19 7 46 15 60 8 14 14 39 15 55 0
17 7 43 15 59 8 15 15 38 15 50 0 26 33 123 47 137 6 6 130 8 318 7 262 -3
309 -5 315 -18 8 -14 22 -53 50 -130 6 -19 14 -46 17 -60 3 -14 11 -39 19 -57
8 -17 14 -38 14 -46 0 -8 7 -28 15 -43 8 -16 15 -36 15 -45 0 -9 7 -30 15 -45
8 -16 15 -40 15 -54 0 -14 7 -34 15 -44 8 -11 15 -28 15 -37 0 -26 69 -139 84
-139 8 0 19 -7 26 -15 10 -13 53 -15 267 -15 308 0 295 -5 371 133 17 33 32
66 32 74 0 8 6 27 13 41 8 15 21 42 30 60 9 19 17 41 17 51 0 9 7 26 15 37 8
10 15 26 15 34 0 8 7 28 15 44 8 15 15 33 15 38 0 6 7 26 16 46 37 86 42 99
48 129 4 18 12 35 17 38 5 4 9 16 9 29 0 12 7 31 15 42 8 10 15 28 15 39 0 11
6 29 14 40 7 11 16 31 19 45 3 14 15 50 27 80 12 30 25 66 30 80 5 14 18 50
30 80 12 30 26 69 30 85 13 46 41 119 49 130 5 5 11 21 14 35 8 35 37 114 46
123 4 4 187 7 407 8 399 0 399 0 417 -32 10 -17 22 -50 27 -73 4 -22 13 -54
18 -71 6 -16 18 -57 28 -90 9 -33 21 -71 27 -85 5 -14 13 -41 17 -60 8 -33 13
-50 40 -130 7 -19 14 -46 17 -60 3 -14 11 -39 19 -57 8 -17 14 -42 14 -55 1
-12 7 -34 15 -48 8 -14 15 -36 15 -50 0 -14 7 -34 15 -44 8 -11 15 -31 15 -45
0 -14 7 -35 15 -45 8 -11 15 -31 15 -45 1 -14 7 -37 15 -51 8 -14 15 -36 15
-50 0 -14 7 -34 15 -44 8 -11 15 -30 15 -42 0 -12 7 -35 15 -50 8 -16 15 -40
15 -54 0 -14 7 -34 15 -44 8 -11 15 -31 15 -45 1 -14 7 -37 15 -51 8 -14 15
-36 15 -50 0 -14 7 -34 15 -44 8 -11 15 -31 15 -45 0 -14 7 -35 15 -45 8 -11
15 -30 15 -43 0 -57 60 -140 125 -173 38 -19 60 -20 499 -20 453 0 460 0 505
22 48 23 141 108 141 129 0 7 11 27 25 45 14 18 25 35 25 38 0 3 34 65 75 137
41 72 75 134 75 139 0 5 6 15 13 22 6 7 26 40 43 73 60 116 102 193 116 214
15 22 15 22 1176 24 1152 2 1161 2 1170 -18 9 -19 18 -20 216 -17 206 3 206 3
206 257 0 254 0 254 -86 257 -71 2 -88 0 -101 -14 -15 -17 -94 -18 -1378 -18
-1361 0 -1361 0 -1421 -29 -74 -36 -110 -75 -164 -176 -24 -44 -56 -105 -73
-135 -59 -111 -91 -165 -99 -168 -4 -2 -8 -14 -8 -27 0 -12 -6 -28 -14 -34 -8
-7 -17 -23 -20 -36 -4 -14 -11 -25 -16 -25 -6 0 -10 -9 -10 -19 0 -11 -4 -22
-9 -25 -4 -3 -25 -39 -45 -80 -20 -41 -43 -80 -52 -86 -10 -9 -81 -12 -267
-11 -242 2 -253 2 -269 22 -10 12 -18 31 -18 44 0 12 -7 36 -15 51 -8 16 -15
36 -15 45 0 9 -7 30 -15 45 -8 16 -15 40 -15 54 0 14 -7 34 -15 44 -8 11 -15
34 -15 50 0 17 -7 40 -15 50 -8 11 -15 31 -15 45 -1 14 -7 37 -15 51 -8 14
-15 36 -15 50 0 14 -7 34 -15 44 -8 11 -15 31 -15 45 0 14 -7 35 -15 45 -8 11
-15 34 -15 50 0 17 -7 40 -15 50 -8 11 -15 31 -15 45 -1 14 -7 37 -15 51 -8
14 -14 35 -15 46 0 12 -7 35 -15 50 -8 16 -15 36 -15 45 0 9 -7 30 -15 45 -8
16 -15 40 -15 54 0 14 -7 34 -15 44 -8 11 -15 30 -15 42 0 12 -7 35 -15 50 -8
16 -15 40 -15 54 0 14 -7 34 -15 44 -8 11 -15 31 -15 45 -1 14 -7 37 -15 51
-8 14 -14 35 -15 46 0 12 -7 35 -15 50 -8 16 -15 37 -15 46 0 9 -6 29 -14 45
-8 15 -23 46 -33 67 -28 60 -51 78 -157 120 -55 23 -1207 23 -1246 1 -14 -8
-34 -15 -45 -15 -26 -1 -86 -57 -106 -101 -35 -75 -49 -111 -49 -127 0 -10 -7
-27 -15 -38 -8 -10 -15 -31 -15 -45 0 -14 -7 -34 -15 -45 -8 -10 -15 -28 -15
-39 0 -11 -7 -33 -15 -49 -8 -15 -15 -36 -15 -45 0 -10 -7 -26 -15 -37 -8 -10
-15 -28 -15 -40 0 -11 -7 -29 -15 -40 -8 -10 -15 -28 -15 -40 0 -11 -7 -29
-15 -40 -8 -10 -15 -31 -15 -45 0 -14 -7 -34 -15 -45 -8 -10 -15 -28 -15 -40
0 -11 -7 -29 -15 -40 -8 -10 -15 -27 -15 -36 0 -10 -6 -32 -14 -50 -8 -18 -22
-53 -31 -78 -9 -25 -23 -58 -31 -73 -8 -16 -14 -36 -14 -46 0 -9 -7 -26 -15
-37 -8 -10 -15 -28 -15 -39 0 -11 -7 -33 -15 -49 -8 -15 -15 -36 -15 -45 0
-10 -7 -26 -15 -37 -8 -10 -15 -33 -15 -51 0 -59 -42 -51 -56 10 -4 18 -13 48
-22 67 -8 19 -20 49 -27 65 -7 17 -20 47 -29 68 -9 21 -16 45 -16 55 0 9 -7
26 -15 36 -8 11 -15 29 -15 40 0 12 -7 30 -15 40 -8 11 -15 29 -15 40 0 12 -7
30 -15 40 -8 11 -15 27 -15 36 0 17 -57 75 -105 106 -29 18 -54 19 -576 19
-545 0 -545 0 -586 -27 -50 -33 -113 -108 -113 -135 0 -10 -7 -28 -15 -39 -8
-10 -15 -33 -15 -50 0 -16 -7 -39 -15 -50 -8 -10 -15 -32 -15 -49 0 -16 -7
-41 -15 -55 -8 -14 -14 -39 -15 -56 0 -16 -7 -39 -15 -50 -8 -10 -15 -35 -15
-54 0 -19 -7 -46 -15 -60 -8 -14 -15 -38 -15 -55 0 -16 -7 -41 -15 -55 -8 -14
-14 -39 -15 -56 0 -16 -7 -39 -15 -50 -8 -10 -15 -35 -15 -55 0 -19 -7 -44
-15 -55 -8 -10 -15 -32 -15 -49 0 -16 -7 -41 -15 -55 -8 -14 -14 -36 -15 -50
0 -14 -7 -38 -15 -54 -8 -15 -15 -40 -15 -55 -1 -14 -7 -37 -15 -51 -8 -14
-15 -38 -15 -55 0 -16 -7 -41 -15 -55 -8 -14 -14 -39 -15 -56 0 -16 -7 -39
-15 -50 -8 -10 -15 -34 -15 -52 0 -18 -5 -43 -12 -55 -6 -12 -15 -38 -19 -57
-8 -38 -29 -98 -42 -117 -11 -18 -228 -18 -245 -1 -7 7 -12 26 -12 43 -1 16
-7 41 -15 55 -8 14 -15 48 -15 75 0 28 -7 68 -15 90 -8 22 -14 63 -15 91 0 28
-7 68 -15 87 -8 20 -15 61 -15 90 0 30 -7 74 -15 97 -8 23 -15 61 -15 84 0 22
-7 63 -15 90 -8 27 -15 71 -15 98 0 27 -5 58 -11 69 -5 11 -13 52 -15 92 -3
40 -12 89 -20 110 -8 20 -14 59 -14 85 0 26 -7 65 -15 87 -8 22 -14 67 -15
100 0 33 -7 78 -15 100 -8 22 -14 65 -15 96 0 31 -7 76 -15 99 -8 23 -15 64
-15 90 0 26 -7 67 -15 90 -8 23 -15 69 -15 102 0 33 -5 69 -11 80 -6 11 -13
57 -16 102 -3 44 -12 93 -19 108 -8 15 -14 54 -14 86 0 33 -7 79 -15 102 -8
23 -15 67 -15 97 0 30 -5 63 -11 75 -6 11 -13 54 -16 96 -3 43 -12 102 -19
132 -8 30 -14 78 -14 107 0 28 -4 54 -9 58 -5 3 -13 19 -16 37 -9 38 -86 117
-135 138 -53 23 -1141 28 -1160 5z"/>
<path d="M4410 9164 c-19 -7 -57 -13 -85 -14 -27 0 -68 -7 -90 -15 -22 -8 -56
-14 -75 -15 -19 0 -44 -7 -54 -15 -11 -8 -34 -15 -50 -15 -17 0 -40 -7 -50
-15 -11 -8 -26 -15 -33 -15 -12 0 -124 -48 -168 -72 -10 -6 -37 -21 -60 -32
-158 -85 -357 -253 -448 -378 -15 -20 -33 -42 -40 -50 -7 -7 -36 -49 -65 -93
-28 -44 -56 -85 -62 -92 -5 -7 -10 -19 -10 -26 0 -8 -7 -20 -15 -27 -8 -7 -15
-20 -15 -30 0 -10 -7 -23 -15 -30 -8 -7 -15 -19 -15 -27 0 -8 -6 -27 -14 -41
-8 -15 -22 -47 -31 -72 -9 -25 -23 -60 -31 -78 -8 -18 -14 -43 -14 -55 0 -12
-7 -35 -15 -51 -8 -15 -15 -41 -15 -57 0 -17 -7 -46 -15 -66 -8 -19 -15 -52
-15 -72 0 -20 -7 -64 -16 -96 -12 -49 -15 -120 -15 -373 1 -204 4 -320 11
-333 6 -11 14 -52 17 -92 3 -40 12 -84 19 -99 8 -15 14 -40 14 -56 0 -17 7
-43 15 -58 8 -16 15 -40 15 -54 0 -14 7 -34 15 -44 8 -11 15 -29 15 -40 0 -12
7 -30 15 -40 8 -11 15 -30 15 -42 0 -12 7 -27 15 -34 8 -7 15 -18 15 -25 0
-19 72 -155 125 -235 86 -130 292 -362 350 -393 11 -5 43 -27 70 -47 94 -70
330 -190 373 -190 10 0 27 -7 38 -15 10 -8 29 -15 41 -15 12 0 34 -5 50 -12
41 -17 129 -38 198 -47 34 -4 70 -13 82 -19 34 -19 530 -16 563 3 14 8 46 14
71 15 26 0 63 7 82 15 20 8 50 15 66 15 16 0 32 4 36 9 3 5 20 13 38 17 56 12
251 105 325 155 24 16 46 29 50 29 4 0 19 11 34 25 15 14 44 36 65 50 52 35
261 242 289 286 12 20 29 42 36 50 12 12 40 56 85 134 43 75 97 213 112 285 4
19 12 44 18 55 6 11 14 46 17 78 7 57 7 57 -41 57 -26 0 -66 5 -88 11 -22 6
-96 15 -165 19 -69 4 -137 13 -151 18 -15 6 -62 12 -105 13 -79 2 -79 2 -85
-27 -3 -16 -10 -38 -16 -49 -6 -11 -28 -56 -49 -100 -77 -158 -165 -264 -295
-356 -104 -74 -277 -159 -323 -159 -13 0 -38 -8 -57 -17 -50 -25 -478 -25
-528 0 -19 9 -43 17 -53 17 -11 0 -32 6 -46 14 -15 7 -58 28 -97 47 -38 19
-96 51 -128 72 -75 50 -200 174 -261 261 -51 72 -155 270 -156 296 0 8 -7 24
-15 34 -8 11 -15 32 -15 47 0 15 -7 40 -15 55 -8 16 -15 46 -15 66 0 20 -7 63
-15 95 -21 82 -21 448 0 500 8 19 15 58 15 85 0 27 7 65 15 85 8 19 15 48 15
62 0 15 7 36 15 47 8 10 15 30 15 42 0 13 6 36 14 50 8 15 35 71 62 126 26 54
53 104 60 110 6 7 19 26 27 43 27 52 163 188 240 240 104 70 257 143 299 143
14 0 39 7 56 15 46 23 436 24 480 1 17 -9 40 -16 51 -16 11 0 35 -6 53 -14 18
-8 58 -24 88 -37 105 -45 231 -130 310 -210 73 -74 180 -229 180 -261 0 -8 5
-19 12 -26 12 -12 35 -69 47 -117 7 -30 7 -30 96 -26 49 2 107 10 129 17 21 8
71 14 112 14 40 0 99 7 131 15 31 8 87 15 125 15 37 0 69 4 72 9 5 8 -21 115
-45 186 -6 17 -14 44 -18 61 -5 16 -20 54 -35 83 -14 29 -26 57 -26 63 0 5 -7
16 -15 24 -8 9 -15 24 -15 35 0 10 -4 19 -9 19 -5 0 -13 9 -16 21 -22 67 -196
283 -289 357 -39 31 -77 62 -85 70 -13 12 -103 73 -146 98 -28 16 -272 137
-318 157 -21 9 -45 17 -55 17 -9 0 -30 7 -46 15 -15 8 -41 15 -57 15 -17 0
-46 7 -66 15 -19 8 -57 15 -83 15 -26 0 -69 7 -96 15 -65 20 -392 19 -444 -1z"/>
<path d="M15055 9164 c-33 -7 -84 -13 -113 -14 -29 0 -63 -5 -75 -12 -12 -6
-40 -15 -62 -19 -51 -9 -85 -21 -207 -73 -20 -9 -38 -16 -41 -16 -3 0 -45 -24
-94 -52 -99 -59 -276 -223 -318 -294 -14 -24 -30 -44 -35 -44 -6 0 -10 -9 -10
-19 0 -11 -6 -26 -13 -33 -8 -7 -17 -26 -21 -41 -3 -15 -11 -27 -16 -27 -6 0
-10 -10 -10 -23 0 -13 -7 -32 -15 -43 -8 -10 -15 -30 -15 -44 0 -14 -7 -36
-15 -50 -8 -14 -14 -45 -15 -69 0 -24 -7 -71 -16 -104 -9 -36 -14 -82 -11
-112 8 -87 28 -209 39 -240 5 -16 12 -41 15 -55 9 -49 83 -196 116 -234 10
-12 25 -32 32 -46 21 -39 173 -183 240 -228 57 -38 148 -86 225 -119 19 -8 48
-21 63 -29 16 -8 38 -14 50 -14 12 0 35 -7 51 -15 15 -8 38 -15 50 -15 12 0
31 -7 42 -15 10 -8 33 -15 49 -15 17 0 43 -7 59 -15 15 -8 42 -15 60 -15 17 0
44 -7 60 -15 15 -8 42 -15 60 -15 17 0 44 -7 60 -15 15 -8 44 -15 63 -15 19 0
49 -6 66 -14 18 -8 50 -17 72 -19 22 -2 55 -9 73 -16 76 -26 99 -33 134 -41
21 -4 43 -12 50 -17 7 -6 25 -13 41 -17 15 -3 27 -11 27 -16 0 -6 8 -10 18
-10 24 0 117 -63 164 -111 21 -22 55 -74 75 -117 45 -94 57 -203 28 -268 -54
-122 -68 -144 -130 -203 -72 -67 -211 -141 -264 -141 -16 0 -45 -7 -64 -15
-45 -18 -372 -21 -427 -4 -19 6 -55 15 -80 19 -49 8 -99 25 -143 46 -16 8 -35
14 -42 14 -8 0 -20 6 -27 13 -7 6 -33 25 -57 40 -81 54 -146 126 -211 237 -19
33 -40 89 -40 107 0 10 -5 24 -12 31 -6 6 -14 31 -17 54 -6 43 -6 43 -46 41
-238 -15 -316 -22 -350 -31 -22 -7 -92 -12 -157 -12 -116 0 -116 0 -111 -82 3
-46 10 -91 15 -100 5 -10 12 -37 17 -60 13 -63 43 -144 77 -210 8 -14 14 -33
14 -42 0 -9 4 -16 8 -16 5 0 14 -12 21 -27 41 -90 241 -302 352 -373 97 -62
120 -74 307 -156 18 -8 40 -14 50 -14 9 0 30 -7 46 -15 15 -8 40 -15 55 -15
14 0 39 -7 55 -15 15 -8 47 -15 70 -15 22 -1 59 -7 81 -15 58 -21 562 -21 620
0 22 8 56 14 76 15 20 0 53 7 72 15 20 8 49 15 64 15 15 0 37 7 47 15 11 8 30
15 42 15 12 0 35 6 51 14 15 8 46 23 68 33 48 22 188 102 195 112 3 3 19 15
35 25 59 37 188 172 240 252 56 84 115 201 115 226 0 8 7 23 15 34 8 10 15 32
15 47 0 15 7 44 16 65 25 56 26 413 1 459 -9 18 -17 45 -17 60 0 15 -7 37 -15
47 -8 11 -15 30 -15 42 0 12 -7 27 -15 34 -8 7 -15 21 -15 31 0 11 -4 19 -9
19 -5 0 -13 10 -17 23 -7 22 -74 115 -124 171 -38 42 -210 167 -285 206 -16 8
-66 30 -110 48 -44 19 -93 40 -108 48 -16 8 -36 14 -46 14 -9 0 -26 7 -37 15
-10 8 -28 15 -39 15 -11 0 -33 7 -49 15 -15 8 -38 15 -50 15 -11 0 -34 7 -50
15 -15 8 -38 15 -50 15 -11 0 -34 7 -50 15 -15 8 -40 15 -55 15 -14 1 -37 7
-51 15 -14 8 -36 14 -50 15 -14 0 -38 7 -54 15 -15 8 -40 15 -55 15 -14 0 -39
7 -55 15 -15 8 -40 15 -55 15 -15 0 -36 7 -47 15 -10 8 -28 15 -40 15 -11 0
-29 7 -40 15 -10 8 -27 15 -37 15 -11 0 -31 6 -45 14 -15 7 -63 31 -107 51
-95 46 -160 88 -197 128 -31 33 -68 100 -68 121 0 8 -7 27 -15 42 -21 40 -19
86 7 163 26 79 71 156 112 194 39 35 139 97 158 97 8 0 18 4 24 9 5 6 27 14
49 20 22 5 58 15 80 20 63 16 345 13 375 -4 14 -8 38 -14 53 -15 29 0 51 -8
157 -57 68 -32 202 -164 252 -248 33 -57 89 -171 101 -207 5 -15 11 -16 32 -8
15 6 51 10 81 10 31 0 64 5 75 10 10 6 49 13 87 16 37 4 90 12 117 20 28 7 92
15 142 16 55 1 94 7 97 13 2 6 -3 29 -11 50 -8 22 -18 57 -23 78 -4 21 -13 44
-19 50 -6 6 -11 21 -11 33 0 12 -6 35 -14 51 -8 15 -36 73 -63 128 -26 55 -53
105 -59 110 -7 6 -23 28 -37 50 -43 70 -226 243 -316 298 -120 75 -162 97
-181 97 -9 0 -25 7 -36 15 -10 8 -31 15 -45 15 -14 0 -34 7 -45 15 -10 8 -35
15 -54 15 -19 0 -48 7 -64 15 -15 8 -52 15 -81 15 -28 0 -74 7 -101 15 -63 19
-323 19 -409 -1z"/>
<path d="M6924 9098 c-2 -3 -5 -829 -7 -1835 -1 -1005 -4 -1835 -7 -1843 -4
-13 95 -15 848 -18 601 -1 859 1 873 9 12 6 55 13 97 16 43 3 86 10 97 16 11
6 38 14 60 18 45 8 97 25 137 45 14 8 36 14 47 14 12 0 21 3 21 8 0 4 24 18
53 32 147 68 330 250 410 408 10 17 24 45 32 61 8 16 15 37 15 48 0 10 7 31
15 47 8 15 15 45 15 65 1 20 7 47 15 61 21 37 21 333 0 383 -8 20 -15 50 -15
66 0 16 -6 42 -14 58 -8 15 -22 48 -32 73 -10 25 -38 75 -62 113 -48 72 -166
197 -187 197 -7 0 -17 6 -23 13 -10 11 -110 63 -177 91 -63 27 -134 46 -168
46 -36 0 -61 18 -49 36 4 6 25 14 47 18 22 4 83 28 135 54 149 74 258 187 325
337 50 113 55 126 55 151 0 13 7 41 15 61 21 49 21 317 0 353 -8 14 -15 43
-15 65 0 22 -7 49 -15 59 -8 11 -15 28 -15 38 0 10 -4 26 -9 36 -5 9 -26 51
-47 92 -41 83 -130 201 -172 227 -15 10 -50 36 -78 59 -29 23 -92 60 -140 83
-49 24 -102 49 -117 57 -16 8 -38 14 -50 14 -12 1 -33 7 -47 15 -14 8 -40 14
-57 15 -18 0 -50 6 -70 14 -21 8 -78 18 -128 22 -113 10 -1605 12 -1611 2z
m1501 -593 c22 -8 58 -15 81 -15 22 0 49 -7 60 -15 10 -8 27 -15 36 -15 9 0
23 -6 30 -13 7 -7 29 -23 49 -35 39 -23 139 -163 139 -193 0 -9 7 -30 15 -45
20 -38 21 -223 1 -267 -52 -123 -64 -142 -117 -191 -63 -59 -185 -126 -228
-126 -15 0 -43 -7 -61 -17 -30 -14 -82 -16 -444 -17 l-411 -1 -3 470 c-1 259
0 476 3 483 7 19 795 17 850 -3z m25 -1484 c69 -4 141 -13 160 -21 108 -41
139 -56 179 -86 130 -100 181 -217 181 -418 0 -88 -4 -129 -15 -150 -8 -15
-15 -36 -15 -45 0 -28 -78 -137 -125 -176 -54 -44 -147 -95 -174 -95 -10 0
-35 -7 -55 -15 -31 -13 -107 -15 -523 -13 l-488 3 -3 505 c-1 278 0 511 3 519
4 11 69 12 378 7 204 -4 428 -10 497 -15z"/>
<path d="M11488 9085 c-6 -11 -14 -22 -17 -25 -10 -8 -33 -73 -38 -107 -3 -18
-11 -38 -19 -44 -8 -6 -14 -19 -14 -28 0 -10 -7 -26 -15 -37 -8 -10 -15 -29
-15 -41 0 -12 -7 -28 -15 -37 -8 -8 -15 -22 -15 -31 0 -9 -6 -31 -14 -48 -7
-18 -23 -57 -35 -87 -31 -78 -36 -90 -55 -133 -9 -21 -16 -45 -16 -53 0 -9 -6
-28 -13 -42 -8 -15 -21 -42 -30 -60 -9 -19 -17 -41 -17 -51 0 -9 -7 -26 -15
-37 -8 -10 -15 -25 -15 -32 0 -15 -21 -67 -46 -115 -8 -16 -14 -33 -14 -39 0
-5 -7 -26 -16 -46 -8 -21 -22 -53 -31 -72 -8 -19 -21 -48 -29 -63 -8 -16 -14
-36 -14 -46 0 -9 -7 -26 -15 -37 -8 -10 -15 -25 -15 -32 0 -15 -21 -67 -46
-115 -8 -16 -14 -36 -14 -46 0 -9 -7 -26 -15 -37 -8 -10 -15 -25 -15 -32 0
-15 -21 -67 -46 -115 -8 -16 -14 -35 -14 -44 0 -8 -6 -27 -13 -41 -8 -15 -21
-42 -30 -60 -9 -19 -17 -41 -17 -51 0 -9 -7 -26 -15 -37 -8 -10 -15 -27 -15
-37 0 -11 -6 -31 -13 -45 -8 -15 -21 -42 -30 -60 -9 -19 -17 -40 -17 -49 0 -8
-6 -27 -14 -41 -8 -15 -21 -47 -31 -72 -9 -25 -23 -58 -30 -75 -7 -16 -20 -50
-30 -75 -9 -25 -23 -58 -31 -73 -8 -16 -14 -33 -14 -39 0 -11 -23 -66 -46
-111 -8 -16 -14 -35 -14 -44 0 -8 -6 -27 -13 -41 -8 -15 -21 -42 -30 -60 -9
-19 -17 -40 -17 -49 0 -8 -6 -27 -13 -41 -8 -15 -21 -42 -30 -60 -9 -19 -17
-41 -17 -51 0 -9 -7 -26 -15 -37 -8 -10 -15 -27 -15 -37 0 -11 -6 -31 -13 -45
-8 -15 -21 -42 -30 -60 -9 -19 -17 -38 -17 -44 0 -11 -23 -66 -46 -111 -8 -16
-14 -35 -14 -44 0 -8 -6 -27 -13 -41 -8 -15 -22 -45 -31 -67 -10 -22 -24 -53
-32 -70 -7 -16 -16 -42 -20 -58 -3 -15 -10 -30 -15 -33 -5 -3 -9 -12 -9 -21 0
-9 -10 -27 -22 -40 -12 -13 -18 -26 -12 -31 5 -4 170 -6 367 -4 357 3 357 3
357 30 0 16 7 37 15 48 8 10 15 27 15 37 0 11 6 31 14 45 26 52 46 103 46 120
0 10 7 27 15 38 8 10 15 28 15 40 0 11 7 29 15 40 8 10 15 27 15 37 0 11 6 31
14 45 8 15 21 47 31 72 9 25 23 58 31 73 8 16 14 36 14 46 0 9 7 26 15 37 8
10 15 27 15 37 0 20 16 62 53 137 22 45 22 45 756 45 642 0 735 -2 741 -15 4
-8 15 -29 24 -47 9 -17 16 -39 16 -50 0 -10 7 -27 15 -37 8 -11 15 -29 15 -40
0 -12 7 -30 15 -40 8 -11 15 -29 15 -40 0 -12 7 -30 15 -40 8 -11 15 -28 15
-37 0 -10 6 -30 14 -46 26 -52 46 -104 46 -118 0 -7 6 -26 14 -42 8 -15 22
-47 30 -70 15 -42 31 -83 63 -168 9 -22 22 -54 29 -72 8 -17 14 -38 14 -47 0
-13 41 -16 358 -18 196 -2 361 0 366 4 5 4 -1 19 -13 34 -11 15 -21 35 -21 45
0 10 -4 20 -9 23 -5 3 -12 18 -16 33 -3 16 -20 56 -36 91 -16 34 -29 70 -29
80 0 9 -7 26 -15 36 -8 11 -15 28 -15 37 0 10 -6 30 -14 46 -18 35 -39 85 -61
143 -10 25 -24 59 -31 77 -8 17 -14 36 -14 41 0 6 -8 25 -17 44 -9 18 -22 45
-30 60 -7 14 -13 33 -13 41 0 9 -6 28 -14 44 -8 15 -22 48 -31 73 -17 44 -25
64 -59 143 -9 21 -16 47 -16 57 0 11 -4 20 -9 20 -5 0 -12 10 -16 23 -9 31
-30 84 -79 200 -9 21 -16 44 -16 52 0 7 -6 26 -14 42 -26 51 -46 101 -46 116
0 8 -7 20 -15 27 -8 7 -15 23 -15 36 0 12 -4 25 -9 28 -5 3 -12 18 -15 33 -4
16 -13 42 -20 58 -8 17 -22 50 -31 75 -10 25 -23 59 -31 75 -7 17 -20 46 -28
67 -9 20 -16 42 -16 50 0 7 -7 22 -15 32 -8 11 -15 28 -15 37 0 10 -6 30 -14
46 -23 45 -46 100 -46 111 0 6 -6 23 -14 39 -26 52 -46 104 -46 118 0 7 -8 28
-17 47 -9 18 -22 45 -30 60 -7 14 -13 36 -13 47 0 12 -4 21 -10 21 -5 0 -12
12 -16 28 -5 26 -23 76 -49 137 -7 17 -21 50 -30 75 -10 25 -23 57 -31 72 -8
14 -14 34 -14 45 0 10 -7 27 -15 37 -8 11 -15 29 -15 40 0 12 -7 30 -15 40 -8
11 -15 28 -15 37 0 10 -6 30 -14 46 -8 15 -22 48 -32 73 -9 25 -23 59 -30 77
-8 17 -14 36 -14 41 0 6 -8 25 -17 44 -9 18 -22 45 -30 60 -7 14 -13 35 -13
45 0 10 -5 24 -11 30 -6 6 -14 26 -19 44 -19 72 -36 109 -51 114 -9 3 -162 7
-339 8 -313 2 -322 1 -332 -18z m357 -831 c6 -21 14 -45 19 -53 5 -7 12 -27
17 -45 8 -31 18 -60 60 -166 11 -30 23 -65 26 -77 3 -12 11 -28 19 -34 8 -6
14 -21 14 -33 0 -11 7 -30 15 -40 8 -11 15 -28 15 -37 0 -10 6 -30 14 -46 8
-15 22 -48 32 -73 9 -25 23 -59 30 -77 8 -17 14 -37 14 -45 0 -7 7 -22 15 -32
8 -11 15 -29 15 -41 0 -12 5 -26 11 -32 6 -6 14 -26 19 -44 11 -46 30 -98 46
-131 8 -14 14 -34 14 -45 0 -10 7 -27 15 -37 8 -11 15 -29 15 -40 0 -12 7 -30
15 -40 8 -11 15 -27 15 -37 0 -9 7 -30 15 -45 8 -16 15 -37 15 -46 0 -9 5 -20
10 -23 6 -3 10 -13 10 -21 0 -12 -75 -14 -526 -14 -526 0 -526 0 -519 33 4 17
13 45 21 61 8 16 14 37 14 46 0 9 7 25 15 36 8 10 15 28 15 40 0 11 7 29 15
40 8 10 15 28 15 39 0 11 6 32 14 47 8 15 17 40 21 57 4 17 11 33 16 36 5 4 9
16 9 29 0 12 7 31 15 42 8 10 15 28 15 40 0 11 7 29 15 40 8 10 15 27 15 36 0
10 6 32 14 50 8 18 22 53 31 78 9 25 23 58 31 73 8 16 14 35 14 44 0 8 6 27
13 41 8 15 21 42 30 60 9 19 17 41 17 51 0 9 7 26 15 37 8 10 15 29 15 41 0
12 7 28 15 37 8 8 15 25 15 38 0 13 7 33 15 44 8 10 15 28 15 40 0 11 7 29 15
40 8 10 15 29 15 42 0 31 19 64 33 59 7 -2 17 -21 22 -43z"/>
<path d="M6183 3793 c-63 -4 -63 -4 -76 -56 -22 -81 -39 -149 -47 -187 -7 -33
-12 -55 -45 -185 -24 -96 -38 -150 -45 -185 -10 -49 -29 -126 -45 -185 -30
-113 -37 -142 -45 -187 -5 -26 -13 -56 -19 -67 -6 -11 -11 -32 -11 -47 0 -14
-6 -47 -14 -73 -17 -55 -34 -121 -45 -176 -13 -62 -32 -136 -47 -180 -15 -45
-18 -82 -6 -88 4 -2 40 -1 81 2 85 7 71 -12 106 146 9 39 22 95 30 125 7 30
20 82 28 115 8 33 20 80 27 105 6 25 15 63 19 85 4 22 12 56 18 75 13 41 32
119 44 175 8 40 19 85 44 180 32 120 37 142 45 185 9 46 21 98 45 185 8 28 16
61 18 75 3 14 12 52 21 84 12 44 13 63 5 73 -6 7 -14 12 -18 11 -3 -1 -34 -3
-68 -5z"/>
<path d="M13961 3790 c-5 -3 -10 -18 -13 -35 -3 -16 -11 -52 -18 -80 -6 -27
-18 -76 -26 -107 -8 -32 -20 -84 -28 -115 -8 -32 -21 -85 -29 -118 -8 -33 -20
-80 -27 -105 -6 -25 -15 -63 -19 -85 -4 -22 -13 -60 -20 -85 -7 -25 -18 -70
-26 -100 -7 -30 -18 -75 -25 -100 -6 -25 -15 -63 -19 -85 -4 -22 -13 -59 -19
-82 -7 -24 -17 -62 -24 -85 -6 -24 -15 -61 -19 -83 -10 -53 -27 -119 -45 -176
-8 -26 -14 -56 -14 -68 0 -11 -7 -36 -16 -55 -22 -44 -13 -72 17 -55 12 6 49
9 83 7 61 -3 61 -3 67 42 3 25 10 61 16 80 11 36 29 106 43 170 4 19 13 58 20
85 6 28 18 76 26 108 27 111 45 183 60 233 8 28 14 59 14 70 0 10 6 39 14 64
17 55 35 122 45 175 10 46 27 118 46 190 30 113 37 142 45 187 5 26 13 56 19
67 6 11 11 32 11 48 1 15 7 39 15 53 25 43 20 47 -66 46 -44 -1 -84 -3 -88 -6z"/>
<path d="M6425 3528 c4 -29 13 -98 19 -153 11 -100 11 -100 66 -100 55 0 55 0
61 145 3 80 4 148 2 153 -3 4 -38 7 -80 7 -75 0 -75 0 -68 -52z"/>
<path d="M10165 3503 c-70 -4 -70 -4 -70 -538 0 -535 0 -535 83 -535 82 0 82
0 82 45 0 51 8 55 53 21 79 -59 116 -70 222 -69 123 1 175 21 252 99 94 94
136 232 113 376 -19 127 -70 210 -163 270 -69 45 -118 60 -191 61 -87 1 -158
-21 -216 -65 -28 -21 -55 -38 -60 -38 -6 0 -11 76 -12 187 -2 115 -7 187 -13
188 -5 0 -41 -1 -80 -2z m446 -440 c87 -47 129 -124 129 -237 0 -57 -5 -83
-26 -124 -62 -125 -191 -174 -310 -118 -115 54 -173 210 -127 339 52 145 207
210 334 140z"/>
<path d="M6960 3233 c-120 -18 -219 -88 -243 -171 -27 -90 19 -193 106 -238
34 -18 167 -64 186 -64 29 0 143 -63 153 -84 21 -47 -30 -103 -109 -120 -65
-15 -183 47 -183 95 0 10 -3 19 -7 19 -5 1 -44 1 -88 2 -93 2 -99 -5 -64 -74
37 -74 65 -103 131 -135 120 -59 285 -54 384 12 70 46 94 92 94 181 0 59 -3
70 -31 106 -44 55 -88 79 -209 117 -125 38 -165 57 -191 89 -26 34 -24 59 10
93 27 27 35 29 102 29 62 0 77 -4 105 -25 23 -17 34 -35 36 -57 3 -31 3 -31
91 -32 84 -2 87 -1 87 21 0 42 -52 133 -98 172 -59 51 -171 78 -262 64z"/>
<path d="M7780 3230 c-99 -17 -151 -42 -213 -105 -152 -155 -152 -438 1 -591
85 -85 140 -106 282 -107 94 -1 122 3 155 19 68 33 122 77 157 129 18 27 39
54 46 58 6 4 12 15 12 22 0 12 -18 15 -89 15 -90 0 -90 0 -131 -44 -54 -58
-84 -69 -169 -64 -58 3 -78 9 -113 34 -44 31 -101 125 -91 150 4 11 65 14 302
16 296 3 296 3 294 102 -2 82 -7 107 -29 154 -29 62 -101 144 -148 168 -76 39
-188 57 -266 44z m178 -164 c38 -24 85 -83 96 -123 5 -16 2 -25 -13 -32 -25
-14 -380 -15 -401 -1 -12 8 -13 14 -1 47 18 50 44 82 89 110 54 33 177 33 230
-1z"/>
<path d="M8670 3234 c-63 -11 -135 -42 -183 -80 -226 -179 -179 -586 80 -705
39 -17 68 -21 148 -22 107 -1 124 4 213 65 24 17 46 27 50 23 4 -4 7 -23 7
-43 0 -37 0 -37 83 -37 90 0 85 -47 82 788 0 4 -37 7 -82 5 -83 -3 -83 -3 -80
-45 4 -53 -4 -54 -72 -10 -28 18 -67 38 -86 44 -42 14 -125 22 -160 17z m172
-163 c54 -23 114 -90 130 -145 22 -74 15 -165 -18 -230 -33 -66 -42 -75 -108
-110 -84 -45 -175 -32 -251 36 -67 58 -95 149 -81 262 20 156 183 249 328 187z"/>
<path d="M9390 3222 c-70 -48 -80 -108 -27 -160 47 -45 100 -45 145 1 53 54
41 113 -30 160 -34 21 -56 21 -88 -1z"/>
<path d="M11335 3231 c-22 -4 -66 -19 -97 -33 -238 -110 -291 -471 -99 -668
81 -82 132 -103 256 -103 109 -1 141 10 219 72 21 17 42 28 47 25 5 -3 9 -25
9 -50 0 -45 0 -45 86 -42 85 3 85 3 84 397 0 217 -2 396 -3 397 -1 1 -38 4
-82 5 -80 4 -80 4 -85 -46 -6 -58 -10 -59 -77 -12 -71 50 -175 73 -258 58z
m188 -161 c25 -11 61 -38 80 -60 92 -107 86 -278 -12 -379 -155 -158 -401 -37
-401 197 0 110 39 184 125 233 62 36 139 39 208 9z"/>
<path d="M12275 3234 c-124 -29 -165 -51 -212 -111 -54 -68 -54 -164 1 -237
35 -45 85 -74 191 -106 147 -45 185 -62 205 -90 24 -34 24 -42 5 -80 -12 -23
-28 -33 -70 -45 -50 -15 -60 -15 -109 -1 -54 16 -106 61 -106 92 0 11 -16 14
-69 14 -38 0 -76 3 -85 6 -47 18 -12 -87 51 -157 69 -76 206 -112 342 -90 79
13 145 52 185 109 26 37 30 51 30 110 -1 130 -53 174 -300 251 -86 27 -131 53
-145 85 -9 19 -7 30 13 60 27 43 53 52 150 48 45 -2 95 -42 106 -84 7 -30 7
-30 90 -32 82 -2 82 -2 82 26 0 15 -12 52 -26 83 -29 61 -91 112 -159 133 -48
13 -142 23 -170 16z"/>
<path d="M13040 3234 c-125 -22 -204 -78 -239 -169 -17 -44 -17 -53 -4 -104
26 -102 72 -133 293 -202 122 -38 166 -71 156 -117 -9 -36 -47 -69 -95 -82
-80 -21 -181 23 -193 85 -3 18 -13 21 -86 25 -103 6 -112 0 -82 -67 28 -64 72
-108 145 -146 56 -29 66 -31 170 -31 121 0 158 11 225 64 77 61 103 175 58
249 -46 74 -99 104 -287 161 -93 29 -141 68 -141 115 0 57 47 79 162 76 45 -1
95 -40 106 -83 8 -31 8 -31 96 -33 99 -2 93 -9 64 80 -19 59 -111 147 -170
162 -56 15 -143 23 -178 17z"/>
<path d="M9403 2623 c-80 -41 -97 -105 -45 -164 24 -27 36 -32 76 -33 42 -1
51 3 77 32 42 47 40 94 -5 137 -43 40 -67 47 -103 28z"/>
</g>
</svg>
