<?xml version="1.0" standalone="no"?>
<!DOCTYPE svg PUBLIC "-//W3C//DTD SVG 20010904//EN"
 "http://www.w3.org/TR/2001/REC-SVG-20010904/DTD/svg10.dtd">
<svg version="1.0" xmlns="http://www.w3.org/2000/svg"
 width="1989.000000pt" height="1989.000000pt" viewBox="0 0 1989.000000 1989.000000"
 preserveAspectRatio="xMidYMid meet">
<metadata>
Created by potrace 1.16, written by Peter Selinger 2001-2019
</metadata>
<g transform="translate(0.000000,1989.000000) scale(0.100000,-0.100000)"
fill="#000000" stroke="none">
<path d="M4940 18764 c0 -21 4 -25 23 -22 14 2 23 11 25 26 3 18 -1 22 -22 22
-21 0 -26 -5 -26 -26z"/>
<path d="M7946 18723 c-27 -2 -59 -11 -70 -19 -11 -8 -28 -14 -37 -14 -56 0
-250 -171 -287 -254 -10 -22 -26 -58 -35 -79 -11 -24 -17 -64 -17 -111 0 -83
-13 -106 -46 -81 -10 8 -28 15 -39 15 -11 0 -29 6 -40 14 -11 7 -36 16 -55 18
-19 3 -48 10 -65 16 -60 21 -122 34 -200 42 -44 5 -93 13 -108 19 -36 14 -219
14 -288 0 -30 -5 -85 -14 -124 -19 -97 -12 -175 -30 -207 -46 -14 -8 -39 -14
-55 -14 -15 0 -37 -7 -47 -15 -11 -8 -27 -15 -37 -15 -9 0 -41 -13 -72 -30
-31 -16 -63 -30 -71 -30 -7 0 -19 -7 -26 -15 -7 -8 -21 -15 -31 -15 -11 0 -19
-4 -19 -9 0 -5 -9 -13 -21 -16 -21 -7 -112 -67 -207 -137 -60 -44 -317 -300
-341 -339 -9 -14 -32 -45 -51 -68 -36 -45 -38 -48 -83 -127 -15 -27 -36 -62
-47 -79 -11 -16 -22 -37 -26 -45 -3 -8 -10 -22 -15 -30 -5 -8 -12 -22 -15 -30
-3 -8 -10 -22 -15 -30 -5 -8 -12 -22 -15 -30 -9 -24 -35 -83 -50 -113 -8 -16
-14 -36 -14 -46 0 -9 -6 -25 -14 -36 -7 -11 -16 -33 -18 -50 -3 -16 -11 -45
-17 -63 -6 -17 -16 -47 -22 -65 -6 -17 -15 -54 -20 -81 -4 -27 -13 -54 -19
-60 -5 -5 -10 -35 -10 -65 -1 -31 -7 -74 -15 -96 -9 -23 -15 -77 -15 -125 0
-100 -18 -397 -26 -422 -3 -10 -17 -21 -32 -25 -15 -3 -29 -9 -32 -13 -3 -3
-25 -16 -50 -29 -67 -34 -137 -91 -226 -183 -76 -80 -144 -174 -144 -201 0 -7
-7 -22 -15 -33 -8 -10 -15 -29 -15 -42 0 -13 -7 -36 -16 -53 -20 -41 -15 -289
9 -367 18 -60 91 -208 114 -230 8 -8 32 -38 53 -66 39 -53 83 -97 111 -112 9
-5 36 -25 59 -44 47 -39 56 -44 160 -94 41 -21 88 -43 103 -51 16 -8 38 -15
50 -15 12 -1 33 -7 47 -15 14 -8 40 -14 58 -15 18 0 49 -8 70 -17 33 -15 85
-17 517 -16 395 1 494 4 560 17 94 19 436 22 500 5 22 -6 77 -14 123 -18 45
-4 88 -13 94 -19 7 -7 22 -12 35 -12 12 0 39 -7 60 -16 94 -40 109 -47 123
-55 8 -5 26 -14 40 -20 14 -6 39 -21 57 -35 17 -13 36 -24 42 -24 16 0 181
-166 181 -182 0 -15 75 -98 90 -98 4 0 27 17 51 38 42 39 42 39 41 113 -1 79
-8 97 -76 203 -49 75 -181 206 -254 254 -77 48 -222 122 -242 122 -9 0 -25 7
-36 15 -10 8 -28 15 -40 15 -11 0 -29 7 -40 15 -10 8 -35 15 -54 15 -19 0 -48
7 -64 15 -15 8 -54 15 -85 15 -32 0 -82 7 -112 16 -48 15 -105 16 -519 9 -256
-4 -523 -8 -595 -8 -137 -1 -290 14 -324 32 -11 6 -28 11 -38 11 -10 0 -31 7
-47 15 -15 8 -36 15 -46 15 -10 0 -23 7 -30 15 -7 8 -20 15 -29 15 -21 0 -108
57 -162 107 -101 92 -163 253 -130 335 5 13 12 34 15 48 3 14 23 53 45 87 43
65 105 109 206 146 73 27 267 35 319 13 21 -9 53 -16 70 -16 17 0 44 -7 60
-15 15 -8 46 -15 67 -15 22 0 56 -7 76 -15 19 -8 56 -15 82 -15 25 -1 64 -7
86 -15 22 -8 74 -15 115 -15 41 0 106 -7 145 -15 56 -12 161 -15 530 -15 460
1 460 1 524 33 51 26 68 41 87 77 28 51 31 96 9 127 -20 29 -165 97 -260 122
-75 20 -102 45 -72 68 28 23 148 83 164 83 10 0 27 7 37 15 11 8 34 15 51 15
17 0 36 5 43 12 20 20 184 23 241 4 27 -9 60 -16 73 -16 14 0 33 -7 44 -15 10
-8 26 -15 34 -15 19 0 148 -66 175 -89 11 -10 33 -25 48 -35 16 -10 60 -46 98
-81 114 -105 212 -164 330 -199 64 -18 357 -23 387 -6 9 5 30 14 45 20 17 6
33 23 41 41 30 72 -30 149 -194 246 -246 146 -290 194 -290 320 0 57 5 75 36
132 32 60 154 191 177 191 4 0 23 11 40 24 37 27 177 96 198 96 8 0 23 7 33
15 11 8 27 15 37 15 9 0 30 7 45 15 16 8 38 15 49 15 11 1 31 7 45 15 14 8 35
14 46 15 12 0 35 7 50 15 16 8 38 15 49 15 11 1 31 7 45 15 14 8 35 14 46 15
12 0 35 7 50 15 16 8 40 15 54 15 14 0 34 7 44 15 11 8 30 15 42 15 12 0 35 6
51 14 25 12 70 32 113 50 67 29 174 131 190 183 7 21 16 42 21 48 12 12 12
102 0 110 -5 3 -12 19 -16 36 -4 17 -13 42 -21 57 -8 15 -14 34 -14 42 0 8 -7
24 -15 34 -8 11 -15 28 -15 38 0 10 -4 18 -9 18 -5 0 -13 10 -17 23 -4 12 -16
36 -28 52 -12 17 -26 37 -31 46 -75 119 -203 257 -295 318 -25 17 -76 53 -115
80 -38 27 -88 59 -110 71 -22 11 -47 25 -55 30 -8 5 -22 11 -30 14 -8 3 -23
10 -32 16 -10 5 -26 15 -35 20 -10 6 -25 13 -33 16 -8 3 -28 12 -43 20 -16 7
-36 14 -46 14 -9 0 -26 7 -37 15 -10 8 -31 15 -46 15 -31 0 -58 23 -58 50 0
10 -7 31 -15 46 -8 16 -15 45 -15 65 0 20 -7 50 -15 65 -8 16 -15 39 -15 52 0
12 -4 22 -9 22 -5 0 -14 13 -19 30 -12 34 -138 164 -173 180 -13 5 -31 14 -39
19 -69 39 -197 56 -334 44z m998 -1050 c57 -43 70 -103 34 -160 -54 -88 -192
-75 -218 20 -16 55 2 101 53 138 47 34 87 35 131 2z"/>
<path d="M12680 18271 c-63 -4 -128 -13 -143 -19 -16 -7 -47 -12 -70 -12 -23
-1 -53 -7 -67 -15 -14 -8 -41 -15 -60 -15 -19 0 -44 -7 -54 -15 -11 -8 -33
-15 -48 -15 -16 0 -36 -4 -46 -10 -24 -14 -101 -41 -134 -47 -15 -3 -33 -11
-39 -19 -6 -8 -20 -14 -29 -14 -10 0 -31 -6 -47 -14 -15 -8 -57 -29 -93 -46
-92 -46 -172 -90 -191 -106 -8 -8 -18 -14 -21 -14 -8 0 -88 -54 -156 -105
-139 -104 -423 -383 -489 -481 -15 -21 -33 -45 -39 -52 -12 -12 -86 -122 -149
-222 -42 -66 -153 -290 -161 -322 -3 -15 -10 -30 -15 -33 -5 -4 -9 -16 -9 -29
0 -12 -7 -31 -15 -42 -8 -10 -15 -31 -15 -45 0 -14 -7 -34 -15 -45 -8 -10 -15
-32 -15 -49 0 -16 -7 -43 -15 -59 -8 -15 -15 -42 -15 -60 -1 -17 -7 -49 -15
-71 -8 -22 -15 -63 -15 -91 0 -28 -7 -73 -15 -100 -21 -69 -21 -542 0 -629 8
-33 15 -79 15 -101 0 -23 7 -58 15 -77 8 -20 15 -54 15 -76 0 -21 7 -52 15
-67 8 -16 15 -42 15 -59 0 -16 7 -39 15 -49 8 -11 15 -32 15 -47 0 -15 4 -30
9 -33 5 -3 12 -18 15 -33 4 -16 13 -41 20 -58 8 -16 22 -50 31 -75 27 -70 76
-168 122 -247 24 -39 43 -74 43 -78 0 -3 4 -11 10 -18 5 -7 33 -47 62 -89 154
-224 353 -432 565 -590 73 -54 135 -98 137 -98 3 0 24 -13 48 -29 24 -16 61
-39 83 -50 67 -37 74 -41 93 -51 9 -6 24 -13 32 -16 8 -3 42 -18 75 -34 33
-16 72 -32 88 -36 15 -3 30 -10 33 -15 3 -5 13 -9 22 -9 9 0 30 -7 46 -15 15
-8 38 -15 50 -15 11 -1 32 -7 46 -15 14 -8 36 -14 50 -15 14 0 38 -7 54 -15
15 -8 43 -15 62 -15 18 0 53 -6 76 -14 24 -8 75 -16 115 -19 40 -3 81 -11 92
-16 31 -17 472 -14 546 4 33 8 81 15 106 15 26 0 63 7 82 15 20 8 52 15 70 15
19 0 51 7 70 15 20 8 49 15 65 15 15 0 33 5 39 11 6 6 29 15 50 19 39 8 86 24
138 46 151 64 200 88 325 156 167 91 406 275 541 414 150 157 322 393 410 564
13 25 27 46 31 48 4 2 8 10 8 18 0 7 13 40 29 71 16 32 36 78 46 103 9 25 23
60 31 78 8 18 14 41 14 50 0 10 7 27 15 38 8 10 15 30 15 44 0 14 7 38 15 54
8 15 15 41 15 57 0 17 7 46 15 66 8 19 15 51 15 70 0 18 7 50 15 70 8 19 15
61 15 92 1 31 7 92 15 136 19 105 19 368 0 455 -8 36 -14 93 -15 126 0 34 -7
78 -15 97 -8 20 -15 54 -15 75 0 21 -5 43 -10 48 -6 6 -15 33 -20 60 -13 73
-31 136 -46 166 -8 14 -14 35 -14 46 0 12 -4 23 -9 26 -5 3 -12 18 -15 33 -4
16 -13 42 -21 58 -36 79 -141 291 -147 300 -16 21 -75 113 -81 126 -11 23 -77
110 -158 210 -114 140 -323 334 -434 405 -16 10 -32 21 -35 24 -8 10 -148 99
-215 136 -55 32 -163 84 -172 84 -6 0 -16 7 -23 15 -7 8 -22 15 -34 15 -12 0
-31 7 -42 15 -10 8 -28 15 -40 15 -11 0 -29 7 -40 15 -10 8 -28 15 -40 15 -11
0 -29 7 -40 15 -10 8 -33 15 -50 15 -16 0 -39 7 -50 15 -10 8 -35 15 -54 15
-19 0 -48 7 -64 15 -15 8 -48 15 -72 15 -25 0 -61 7 -81 15 -42 18 -479 28
-673 16z m533 -466 c32 -8 74 -15 93 -15 19 0 51 -7 71 -15 19 -8 49 -15 65
-15 16 0 39 -5 51 -12 12 -6 35 -15 52 -19 69 -17 108 -33 265 -108 156 -75
202 -103 349 -213 137 -104 245 -205 311 -294 21 -28 45 -57 52 -65 65 -65
224 -339 276 -474 13 -33 30 -75 38 -93 8 -18 14 -41 14 -51 0 -10 7 -32 15
-47 8 -16 15 -42 15 -57 0 -16 5 -38 11 -50 7 -11 15 -50 20 -86 5 -36 13 -86
18 -111 13 -58 13 -468 0 -540 -6 -30 -14 -86 -18 -123 -5 -38 -13 -73 -20
-80 -6 -6 -11 -29 -11 -52 0 -23 -7 -50 -15 -61 -8 -10 -15 -33 -15 -50 0 -16
-7 -39 -15 -50 -8 -10 -15 -26 -15 -34 0 -8 -6 -27 -14 -41 -7 -14 -16 -37
-20 -52 -3 -15 -11 -27 -16 -27 -6 0 -10 -7 -10 -16 0 -9 -6 -28 -14 -42 -8
-15 -24 -48 -37 -74 -13 -27 -27 -48 -31 -48 -5 0 -8 -8 -8 -18 0 -10 -7 -27
-15 -37 -8 -11 -35 -51 -61 -90 -57 -85 -174 -232 -240 -300 -105 -109 -354
-295 -454 -339 -8 -3 -33 -17 -55 -31 -22 -13 -48 -24 -57 -25 -10 0 -18 -4
-18 -9 0 -5 -10 -13 -22 -16 -24 -7 -73 -28 -120 -52 -14 -7 -37 -13 -50 -13
-12 0 -32 -7 -42 -15 -11 -8 -34 -15 -52 -15 -17 0 -45 -7 -60 -15 -16 -8 -45
-15 -65 -15 -20 0 -52 -6 -70 -14 -38 -15 -215 -30 -354 -29 -133 0 -327 17
-352 31 -12 7 -41 12 -65 12 -24 0 -53 7 -64 15 -10 8 -33 15 -50 15 -16 0
-39 7 -50 15 -10 8 -27 15 -36 15 -10 0 -34 7 -55 16 -21 9 -51 22 -68 29 -44
18 -234 113 -275 137 -51 30 -153 100 -169 116 -8 8 -30 24 -50 36 -94 60
-273 256 -429 471 -18 26 -82 134 -82 140 0 3 -7 13 -15 21 -8 9 -15 24 -15
33 0 10 -7 24 -15 31 -8 7 -15 18 -15 25 0 8 -8 28 -17 47 -9 18 -22 45 -30
60 -7 14 -13 33 -13 41 0 8 -7 28 -15 43 -8 16 -15 36 -15 45 0 9 -7 30 -15
45 -8 16 -15 41 -15 55 0 15 -7 40 -15 55 -8 16 -15 49 -15 74 0 25 -7 68 -16
95 -23 73 -23 578 0 645 9 25 16 65 16 90 0 25 7 58 15 74 8 15 15 38 15 50 0
11 7 34 15 50 8 15 15 38 15 50 0 12 7 31 15 42 8 10 15 27 15 37 0 11 6 31
14 45 8 15 31 61 50 102 82 172 188 337 281 441 112 124 296 297 360 337 22
14 42 28 45 31 3 3 34 23 70 44 36 21 72 42 80 47 52 31 214 110 225 110 7 0
27 7 44 15 17 8 45 22 62 30 17 8 41 15 54 15 12 0 36 7 51 15 16 8 43 15 59
15 17 1 41 7 55 15 14 8 45 15 70 15 25 0 65 7 90 14 66 21 454 22 533 1z"/>
<path d="M12740 17300 c0 -3 -3 -277 -6 -610 -5 -604 -5 -604 -69 -672 -36
-37 -65 -74 -65 -81 0 -7 -7 -22 -15 -33 -10 -14 -14 -47 -14 -124 0 -77 4
-110 14 -124 8 -11 15 -26 15 -33 0 -44 123 -163 185 -179 14 -3 28 -10 31
-15 7 -12 211 -11 219 1 12 20 49 9 99 -28 28 -21 67 -48 86 -59 20 -12 46
-33 59 -47 14 -14 29 -26 34 -26 5 0 26 -13 47 -30 21 -16 40 -30 43 -30 7 0
189 -121 231 -153 16 -12 37 -26 47 -32 10 -5 51 -32 91 -60 40 -27 78 -52 83
-54 6 -2 29 -19 53 -38 42 -34 72 -38 72 -9 0 8 16 35 35 60 19 26 35 49 35
52 0 5 21 34 100 136 23 30 20 68 -7 68 -8 0 -32 12 -52 28 -20 15 -44 32 -53
37 -30 18 -123 83 -145 102 -13 10 -51 37 -85 61 -35 23 -103 72 -153 107 -49
35 -121 85 -160 111 -38 26 -100 70 -137 97 -68 50 -68 50 -68 112 0 78 -40
157 -111 217 -49 41 -49 41 -50 377 -1 185 -4 457 -8 604 -6 269 -6 269 -193
271 -104 1 -188 -1 -188 -4z"/>
<path d="M15320 17686 c0 -13 6 -26 13 -29 22 -7 37 4 37 29 0 19 -5 24 -25
24 -20 0 -25 -5 -25 -24z"/>
<path d="M6176 13515 c-11 -8 -27 -15 -36 -15 -26 0 -140 -116 -140 -143 0 -7
-7 -22 -15 -33 -8 -10 -15 -31 -15 -45 0 -14 -7 -34 -15 -45 -8 -10 -15 -28
-15 -39 0 -11 -6 -29 -14 -40 -7 -11 -16 -33 -18 -50 -6 -30 -20 -75 -43 -130
-17 -43 -36 -96 -45 -130 -13 -48 -31 -98 -46 -128 -8 -16 -14 -39 -14 -51 0
-12 -7 -31 -15 -42 -8 -10 -15 -28 -15 -40 0 -11 -7 -29 -15 -40 -8 -10 -15
-30 -15 -42 0 -13 -6 -36 -14 -50 -15 -30 -33 -81 -46 -127 -13 -48 -31 -98
-46 -128 -8 -16 -14 -39 -14 -51 0 -12 -7 -31 -15 -42 -8 -10 -15 -28 -15 -39
0 -11 -7 -33 -15 -49 -8 -15 -15 -36 -15 -45 0 -10 -7 -26 -15 -37 -8 -10 -15
-29 -15 -40 0 -12 -6 -27 -14 -33 -10 -8 -378 -11 -1376 -11 -750 0 -1365 -2
-1368 -4 -4 -4 -3 -468 1 -472 1 -1 27 -4 57 -5 49 -4 55 -2 60 19 5 22 5 22
1395 25 765 2 1404 7 1422 11 18 5 38 14 44 22 6 8 17 14 25 14 32 0 95 81
129 165 9 22 23 53 31 68 8 16 14 39 14 51 0 12 7 31 15 42 8 10 15 28 15 39
0 11 6 29 14 40 7 11 16 34 18 50 7 36 25 89 44 128 8 16 14 35 14 44 0 8 6
29 13 46 18 43 37 95 47 132 13 48 31 98 46 128 8 16 14 36 14 45 0 9 7 30 15
46 8 15 15 35 15 43 0 8 6 29 13 46 18 43 37 95 47 132 13 48 31 98 46 128 8
16 14 39 14 51 0 12 7 31 15 42 8 10 15 30 15 44 0 14 6 34 14 45 7 11 17 35
21 53 7 32 7 32 447 30 440 -3 440 -3 459 -58 10 -30 19 -78 19 -107 0 -28 7
-78 15 -110 8 -31 15 -79 15 -106 0 -26 5 -57 11 -69 6 -11 13 -54 16 -96 3
-43 10 -85 15 -95 5 -11 14 -60 19 -110 12 -126 27 -230 44 -304 8 -34 15 -83
15 -110 0 -26 7 -66 15 -88 8 -22 14 -69 15 -106 0 -36 5 -70 11 -76 6 -6 13
-46 16 -89 2 -44 11 -96 19 -117 8 -20 14 -59 14 -85 0 -26 7 -65 15 -87 8
-22 14 -62 15 -90 0 -27 7 -68 15 -90 8 -22 14 -63 15 -91 0 -29 7 -65 15 -80
8 -16 15 -54 15 -84 0 -30 7 -73 15 -95 8 -22 14 -59 15 -82 0 -23 7 -68 15
-100 8 -31 15 -74 15 -94 0 -20 7 -53 15 -72 8 -20 15 -63 15 -95 0 -33 7 -76
15 -95 8 -20 15 -58 15 -84 1 -26 7 -59 15 -73 8 -14 14 -35 15 -48 0 -42 66
-120 129 -154 29 -16 69 -18 392 -18 338 0 362 1 398 20 43 21 101 85 101 110
0 9 7 25 15 36 8 10 15 30 15 44 0 14 7 36 15 50 8 14 14 36 15 50 0 14 7 38
15 54 8 15 15 38 15 50 0 11 7 34 15 50 8 15 15 41 15 57 0 15 6 43 14 61 14
35 31 93 47 168 5 24 14 49 19 54 6 6 10 26 10 46 0 20 7 45 15 56 8 10 15 32
15 47 0 16 5 38 12 50 6 12 15 40 19 62 4 22 11 54 17 70 14 40 32 110 41 163
4 24 13 48 19 54 7 7 12 28 12 47 1 20 7 47 15 61 8 14 14 39 15 55 0 17 7 43
15 59 8 15 15 38 15 50 0 26 33 123 47 137 6 6 130 8 318 7 262 -3 309 -5 315
-18 8 -14 22 -53 50 -130 6 -19 14 -46 17 -60 3 -14 11 -39 19 -57 8 -17 14
-38 14 -46 0 -8 7 -28 15 -43 8 -16 15 -36 15 -45 0 -9 7 -30 15 -45 8 -16 15
-40 15 -54 0 -14 7 -34 15 -44 8 -11 15 -28 15 -37 0 -26 69 -139 84 -139 8 0
19 -7 26 -15 10 -13 53 -15 267 -15 308 0 295 -5 371 133 17 33 32 66 32 74 0
8 6 27 13 41 8 15 21 42 30 60 9 19 17 41 17 51 0 9 7 26 15 37 8 10 15 26 15
34 0 8 7 28 15 44 8 15 15 33 15 38 0 6 7 26 16 46 37 86 42 99 48 129 4 18
12 35 17 38 5 4 9 16 9 29 0 12 7 31 15 42 8 10 15 28 15 39 0 11 6 29 14 40
7 11 16 31 19 45 3 14 15 50 27 80 12 30 25 66 30 80 5 14 18 50 30 80 12 30
26 69 30 85 13 46 41 119 49 130 5 5 11 21 14 35 7 34 37 113 45 122 4 4 187
8 407 8 400 2 400 2 418 -30 10 -18 22 -51 27 -74 4 -22 13 -54 18 -71 6 -16
18 -57 28 -90 9 -33 21 -71 27 -85 5 -14 13 -41 17 -60 8 -33 13 -50 40 -130
7 -19 14 -46 17 -60 3 -14 11 -39 19 -57 8 -17 14 -42 14 -55 1 -12 7 -34 15
-48 8 -14 15 -36 15 -50 0 -14 7 -34 15 -44 8 -11 15 -31 15 -45 0 -14 7 -35
15 -45 8 -11 15 -31 15 -45 1 -14 7 -37 15 -51 8 -14 15 -36 15 -50 0 -14 7
-34 15 -44 8 -11 15 -30 15 -42 0 -12 7 -35 15 -50 8 -16 15 -39 15 -50 0 -12
7 -35 15 -50 8 -16 15 -38 15 -49 1 -11 7 -31 15 -45 8 -14 15 -36 15 -50 0
-14 7 -34 15 -44 8 -11 15 -31 15 -45 0 -14 7 -35 15 -45 8 -11 15 -30 15 -43
0 -57 60 -140 125 -173 38 -19 60 -20 499 -20 453 0 460 0 505 22 48 23 141
108 141 129 0 7 11 27 25 45 14 18 25 35 25 38 0 3 34 65 75 137 41 72 75 134
75 139 0 5 6 15 13 22 6 7 26 40 43 73 60 116 102 193 116 214 15 22 15 22
1176 24 1152 2 1161 2 1170 -18 9 -19 18 -20 216 -17 206 3 206 3 206 257 0
255 0 255 -89 255 -66 0 -92 -4 -101 -15 -11 -13 -176 -15 -1374 -15 -1362 0
-1362 0 -1422 -29 -70 -34 -112 -76 -150 -151 -15 -30 -30 -57 -33 -60 -4 -3
-17 -27 -31 -55 -14 -27 -47 -90 -75 -140 -27 -49 -67 -124 -88 -165 -82 -160
-117 -224 -131 -238 -12 -12 -60 -14 -268 -13 -243 2 -254 2 -270 22 -10 12
-18 31 -18 44 0 12 -7 36 -15 51 -8 16 -15 36 -15 45 0 9 -7 30 -15 45 -8 16
-15 40 -15 54 0 14 -7 34 -15 44 -8 11 -15 34 -15 50 0 17 -7 40 -15 50 -8 11
-15 31 -15 45 -1 14 -7 37 -15 51 -8 14 -15 36 -15 50 0 14 -7 34 -15 44 -8
11 -15 31 -15 45 0 14 -7 35 -15 45 -8 11 -15 34 -15 50 0 17 -7 40 -15 50 -8
11 -15 31 -15 45 -1 14 -7 37 -15 51 -8 14 -14 35 -15 46 0 12 -7 35 -15 50
-8 16 -15 36 -15 45 0 9 -7 30 -15 45 -8 16 -15 40 -15 54 0 14 -7 34 -15 44
-8 11 -15 30 -15 42 0 12 -7 35 -15 50 -8 16 -15 39 -15 50 0 12 -7 35 -15 50
-8 16 -15 38 -15 49 -1 11 -7 31 -15 45 -8 14 -14 35 -15 46 0 12 -7 35 -15
50 -8 16 -15 37 -15 46 0 9 -7 29 -15 45 -8 15 -22 47 -32 70 -20 46 -80 92
-154 118 -64 22 -1211 22 -1249 0 -14 -8 -34 -15 -45 -15 -26 -1 -86 -57 -106
-101 -35 -75 -49 -111 -49 -127 0 -10 -7 -27 -15 -38 -8 -10 -15 -30 -15 -42
0 -13 -6 -36 -14 -50 -16 -33 -35 -85 -46 -131 -5 -18 -13 -38 -19 -44 -6 -6
-11 -20 -11 -30 0 -10 -6 -31 -14 -45 -16 -33 -35 -85 -46 -131 -5 -18 -13
-38 -19 -44 -6 -6 -11 -19 -11 -29 0 -9 -6 -32 -14 -50 -15 -34 -38 -95 -63
-163 -8 -22 -21 -53 -29 -68 -8 -16 -14 -36 -14 -46 0 -9 -7 -26 -15 -37 -8
-10 -15 -28 -15 -39 0 -11 -7 -33 -15 -49 -8 -15 -15 -36 -15 -45 0 -10 -7
-26 -15 -37 -8 -10 -15 -30 -15 -44 0 -14 -4 -31 -9 -39 -13 -21 -38 1 -47 42
-4 18 -13 48 -22 67 -8 19 -20 49 -27 65 -7 17 -20 47 -29 68 -9 21 -16 45
-16 55 0 9 -7 26 -15 36 -8 11 -15 29 -15 40 0 12 -7 30 -15 40 -8 11 -15 29
-15 40 0 12 -7 30 -15 40 -8 11 -15 27 -15 36 0 17 -57 75 -105 106 -29 18
-54 19 -576 19 -545 0 -545 0 -586 -27 -53 -35 -109 -104 -118 -145 -3 -18
-11 -35 -16 -38 -5 -4 -9 -21 -9 -39 0 -18 -7 -41 -15 -52 -8 -10 -15 -32 -15
-49 0 -16 -7 -41 -15 -55 -8 -14 -14 -39 -15 -56 0 -16 -7 -39 -15 -50 -8 -10
-15 -33 -15 -51 0 -18 -6 -47 -14 -65 -14 -35 -31 -93 -47 -168 -5 -24 -14
-49 -19 -54 -6 -6 -10 -26 -10 -46 0 -20 -7 -45 -15 -56 -8 -10 -15 -32 -15
-49 0 -16 -7 -41 -15 -55 -8 -14 -14 -36 -15 -50 0 -14 -7 -38 -15 -54 -8 -15
-15 -40 -15 -55 -1 -14 -7 -37 -15 -51 -8 -14 -15 -38 -15 -55 0 -16 -7 -41
-15 -55 -8 -14 -14 -39 -15 -56 0 -16 -7 -39 -15 -50 -8 -10 -15 -35 -15 -54
0 -20 -6 -44 -14 -55 -7 -11 -16 -36 -19 -55 -5 -35 -25 -94 -40 -117 -11 -18
-228 -18 -245 -1 -7 7 -12 26 -12 43 -1 16 -7 41 -15 55 -8 14 -15 48 -15 75
0 28 -7 68 -15 90 -8 22 -14 63 -15 91 0 28 -7 68 -15 87 -8 20 -15 61 -15 90
0 30 -7 74 -15 97 -8 23 -15 63 -15 89 0 25 -7 64 -15 86 -8 22 -14 64 -15 93
0 29 -5 62 -11 73 -5 11 -13 52 -15 92 -3 40 -12 89 -20 110 -8 20 -14 59 -14
85 0 26 -7 65 -15 87 -8 22 -14 67 -15 100 0 33 -7 78 -15 100 -8 22 -14 65
-15 95 0 30 -7 77 -15 104 -8 27 -15 68 -15 91 0 24 -7 62 -15 85 -8 23 -15
69 -15 102 0 33 -5 68 -11 80 -6 11 -13 54 -16 96 -2 43 -11 94 -19 115 -8 20
-14 61 -14 91 0 29 -7 73 -15 96 -8 23 -15 67 -15 97 0 30 -5 63 -11 75 -6 11
-13 54 -16 96 -3 43 -12 102 -19 132 -8 30 -14 78 -14 107 0 28 -4 54 -9 58
-5 3 -13 19 -16 37 -9 38 -86 117 -135 138 -52 22 -1315 27 -1344 5z"/>
<path d="M4428 9169 c-10 -5 -48 -12 -85 -15 -38 -4 -87 -12 -111 -20 -23 -8
-57 -14 -75 -14 -18 0 -41 -7 -51 -15 -11 -8 -34 -15 -50 -15 -17 0 -40 -7
-50 -15 -11 -8 -26 -15 -33 -15 -12 0 -81 -30 -183 -78 -19 -10 -41 -23 -48
-29 -7 -7 -17 -13 -22 -13 -9 0 -115 -71 -195 -131 -56 -41 -187 -174 -228
-231 -15 -20 -33 -42 -40 -50 -20 -21 -93 -131 -122 -184 -27 -51 -42 -79 -57
-104 -4 -8 -11 -22 -14 -30 -3 -8 -11 -28 -18 -45 -8 -16 -21 -50 -31 -75 -9
-25 -23 -60 -31 -78 -8 -18 -14 -43 -14 -55 0 -12 -7 -35 -15 -51 -8 -15 -15
-41 -15 -57 0 -17 -7 -46 -15 -66 -8 -19 -15 -52 -15 -72 0 -20 -7 -64 -16
-96 -12 -49 -15 -120 -15 -372 0 -194 4 -320 10 -332 6 -10 14 -52 17 -93 4
-40 13 -85 20 -100 8 -15 14 -40 14 -56 0 -17 7 -43 15 -58 8 -16 15 -40 15
-54 0 -14 7 -34 15 -44 8 -11 15 -27 15 -37 0 -9 7 -30 15 -45 8 -16 15 -36
15 -45 0 -9 7 -22 15 -29 8 -7 15 -18 15 -25 0 -19 72 -155 125 -235 92 -140
278 -346 356 -395 20 -13 42 -30 50 -37 12 -12 63 -44 134 -84 82 -47 221
-109 262 -118 18 -4 35 -12 38 -17 4 -5 17 -9 30 -9 13 0 36 -5 52 -12 41 -17
129 -38 198 -47 34 -4 70 -13 82 -19 34 -19 530 -16 563 3 14 8 46 14 71 15
26 0 63 7 82 15 20 8 50 15 66 15 16 0 32 4 36 9 3 5 20 13 38 17 33 7 82 26
129 50 14 8 33 14 42 14 9 0 16 4 16 8 0 5 17 16 38 25 20 9 61 32 90 52 30
19 57 35 60 35 4 0 19 11 34 25 15 14 44 36 65 50 52 35 261 242 289 286 12
20 29 42 36 50 12 12 40 56 85 134 43 75 97 213 112 285 4 19 12 44 18 55 6
11 14 46 17 78 7 57 7 57 -41 57 -26 0 -66 5 -88 11 -22 6 -96 15 -165 19 -69
4 -137 13 -151 18 -15 6 -62 12 -105 13 -79 2 -79 2 -85 -27 -3 -16 -10 -38
-16 -49 -6 -11 -28 -56 -49 -100 -77 -158 -165 -264 -295 -356 -104 -74 -277
-159 -323 -159 -13 0 -36 -6 -52 -14 -63 -31 -516 -28 -547 3 -6 6 -22 11 -35
11 -13 0 -36 6 -50 14 -15 7 -58 28 -97 47 -38 19 -96 51 -128 72 -75 50 -200
174 -261 261 -51 72 -155 270 -156 296 0 8 -7 24 -15 34 -8 11 -15 32 -15 47
0 15 -7 40 -15 55 -8 16 -15 46 -15 66 0 20 -7 63 -15 95 -21 82 -21 448 0
500 8 19 15 58 15 85 0 27 7 65 15 85 8 19 15 48 15 62 0 15 7 36 15 47 8 10
15 30 15 42 0 13 6 36 14 50 8 15 35 71 62 126 26 54 53 104 60 110 6 7 19 26
27 43 27 52 163 188 240 240 104 70 257 143 299 143 14 0 39 7 56 15 46 23
436 24 480 1 17 -9 40 -16 51 -16 11 0 35 -6 53 -14 18 -8 58 -24 88 -37 104
-44 227 -128 308 -209 74 -74 182 -230 182 -262 0 -8 5 -19 12 -26 12 -12 35
-69 47 -117 7 -30 7 -30 96 -26 49 2 107 10 128 17 22 8 75 14 118 14 43 0 90
5 106 11 15 6 70 13 121 16 51 3 95 9 97 13 4 7 -24 119 -46 185 -6 17 -14 44
-18 61 -5 16 -20 54 -35 83 -14 29 -26 57 -26 63 0 5 -7 16 -15 24 -8 9 -15
24 -15 35 0 10 -4 19 -9 19 -5 0 -13 9 -16 21 -22 67 -196 283 -289 357 -39
31 -77 62 -85 70 -13 12 -103 73 -146 98 -28 16 -272 137 -318 157 -21 9 -45
17 -55 17 -9 0 -30 7 -46 15 -15 8 -41 15 -57 15 -17 0 -46 7 -66 15 -19 8
-57 15 -83 15 -26 0 -69 7 -96 15 -58 17 -398 21 -426 4z"/>
<path d="M15055 9164 c-33 -7 -84 -13 -113 -14 -29 0 -63 -5 -75 -12 -12 -6
-40 -15 -62 -19 -51 -9 -85 -21 -207 -73 -20 -9 -39 -16 -42 -16 -7 0 -155
-89 -186 -112 -56 -43 -195 -186 -222 -230 -16 -27 -34 -48 -39 -48 -5 0 -9
-9 -9 -19 0 -11 -6 -26 -13 -33 -8 -7 -17 -26 -21 -41 -3 -15 -11 -27 -16 -27
-6 0 -10 -10 -10 -23 0 -13 -7 -32 -15 -43 -8 -10 -15 -30 -15 -44 0 -14 -7
-36 -15 -50 -8 -14 -14 -45 -15 -69 0 -24 -7 -71 -16 -104 -9 -36 -14 -82 -11
-112 8 -87 28 -209 39 -240 5 -16 12 -41 15 -55 4 -24 22 -66 49 -120 29 -59
49 -95 55 -100 4 -3 18 -23 33 -45 42 -63 173 -190 245 -239 62 -41 153 -90
231 -123 19 -8 48 -21 63 -29 16 -8 38 -14 50 -14 12 -1 33 -7 47 -15 14 -8
37 -14 51 -15 14 0 34 -7 45 -15 10 -8 33 -15 49 -15 17 0 43 -7 59 -15 15 -8
42 -15 60 -15 17 0 44 -7 60 -15 15 -8 42 -15 60 -15 17 0 44 -7 60 -15 15 -8
44 -15 63 -15 19 0 49 -6 66 -14 18 -8 50 -17 72 -19 22 -2 55 -9 73 -16 76
-26 99 -33 134 -41 21 -4 43 -12 50 -17 7 -6 25 -13 41 -17 15 -3 27 -11 27
-16 0 -6 8 -10 18 -10 24 0 117 -63 164 -111 21 -22 55 -74 75 -117 30 -63 38
-91 41 -153 4 -79 4 -80 -50 -199 -34 -74 -139 -170 -241 -218 -47 -23 -100
-42 -116 -42 -16 0 -45 -7 -64 -15 -45 -18 -372 -21 -427 -4 -19 6 -55 15 -80
19 -49 8 -99 25 -143 46 -16 8 -35 14 -42 14 -8 0 -20 6 -27 13 -7 6 -33 25
-57 40 -93 61 -183 169 -230 277 -23 53 -43 117 -50 155 -6 39 -7 40 -46 38
-244 -15 -325 -22 -350 -30 -16 -5 -81 -11 -144 -12 -63 -1 -118 -4 -121 -6
-10 -6 0 -156 12 -177 4 -10 12 -37 17 -60 13 -63 43 -144 77 -210 8 -14 14
-33 14 -41 0 -9 4 -17 8 -19 4 -1 20 -23 35 -48 102 -166 282 -332 452 -418
36 -18 85 -40 193 -88 18 -8 40 -14 50 -14 9 0 30 -7 46 -15 15 -8 39 -15 53
-15 14 0 39 -6 56 -14 18 -8 59 -17 91 -19 32 -3 64 -11 69 -16 18 -18 562
-14 612 4 22 8 56 14 76 15 20 0 53 7 72 15 20 8 49 15 64 15 15 0 37 7 47 15
11 8 30 15 42 15 12 0 35 7 51 14 15 8 60 30 99 49 226 107 419 299 523 519
17 36 31 72 31 80 0 8 7 23 15 34 8 10 15 32 15 47 0 15 7 44 16 65 25 56 26
413 1 459 -9 18 -17 45 -17 60 0 15 -7 37 -15 47 -8 11 -15 28 -15 37 0 19
-28 75 -47 97 -7 7 -13 18 -13 24 0 10 -74 110 -120 162 -38 42 -210 167 -285
206 -16 8 -66 30 -110 48 -44 19 -93 40 -108 48 -16 8 -36 14 -46 14 -9 0 -26
7 -37 15 -10 8 -28 15 -39 15 -11 0 -33 7 -49 15 -15 8 -38 15 -50 15 -11 0
-34 7 -50 15 -15 8 -38 15 -50 15 -11 0 -34 7 -50 15 -15 8 -40 15 -55 15 -14
1 -37 7 -51 15 -14 8 -36 14 -50 15 -14 0 -38 7 -54 15 -15 8 -40 15 -55 15
-14 0 -39 7 -55 15 -15 8 -40 15 -55 15 -15 0 -36 7 -47 15 -10 8 -28 15 -40
15 -11 0 -29 7 -40 15 -10 8 -27 15 -37 15 -11 0 -31 6 -45 14 -15 7 -63 31
-107 51 -143 68 -209 122 -244 200 -55 121 -60 163 -30 251 27 82 71 158 113
197 39 35 139 97 158 97 8 0 18 4 24 9 8 9 49 21 139 41 68 15 336 12 365 -5
14 -8 38 -14 53 -15 29 0 51 -8 157 -57 68 -32 202 -164 252 -248 33 -57 89
-171 101 -207 5 -15 11 -16 32 -8 15 6 51 10 81 10 31 0 64 5 75 10 10 6 49
13 87 16 37 4 90 12 117 20 28 7 91 15 142 16 103 2 111 9 86 69 -8 18 -18 49
-23 69 -21 88 -138 350 -166 375 -7 6 -23 28 -37 50 -44 72 -223 241 -314 297
-122 76 -164 98 -183 98 -9 0 -25 7 -36 15 -10 8 -31 15 -45 15 -14 0 -34 7
-45 15 -10 8 -35 15 -54 15 -19 0 -48 7 -64 15 -15 8 -52 15 -81 15 -28 0 -74
7 -101 15 -63 19 -323 19 -409 -1z"/>
<path d="M6925 9099 c-3 -4 -6 -830 -8 -1836 -1 -1005 -4 -1835 -7 -1843 -4
-13 95 -15 848 -18 601 -1 859 1 873 9 12 6 55 13 97 16 43 3 89 12 104 19 15
8 42 14 60 14 18 0 42 7 52 15 11 8 29 15 40 15 12 0 30 7 40 15 11 8 28 15
39 15 10 0 25 7 33 15 9 8 24 15 35 15 10 0 19 4 19 9 0 5 10 13 23 17 36 11
167 116 232 185 59 63 115 142 148 207 10 17 24 45 32 61 8 16 15 37 15 48 0
10 7 31 15 47 8 15 15 41 15 57 0 17 7 46 15 66 11 26 15 76 15 193 0 117 -4
167 -15 193 -8 20 -15 50 -15 66 0 16 -6 42 -14 58 -8 15 -22 48 -32 73 -10
25 -38 75 -62 113 -48 72 -166 197 -187 197 -7 0 -17 6 -23 13 -10 11 -110 63
-177 91 -63 27 -134 46 -168 46 -40 0 -65 21 -45 38 7 5 29 13 48 17 19 3 78
28 130 53 149 74 258 187 325 337 50 113 55 126 55 151 0 13 7 41 15 61 21 49
21 317 0 353 -8 14 -15 43 -15 65 0 22 -7 49 -15 59 -8 11 -15 28 -15 38 0 10
-4 26 -9 36 -5 9 -26 51 -47 92 -41 83 -130 201 -172 227 -15 10 -50 36 -78
59 -29 23 -92 60 -140 83 -49 24 -102 49 -117 57 -16 8 -38 14 -50 14 -12 1
-33 7 -47 15 -14 8 -39 14 -57 15 -17 0 -44 5 -60 12 -15 6 -66 16 -113 21
-105 11 -1629 17 -1635 6z m1500 -594 c22 -8 58 -15 81 -15 22 0 49 -7 60 -15
10 -8 24 -15 30 -15 7 0 37 -16 68 -36 40 -27 69 -57 106 -112 27 -42 50 -84
50 -93 0 -9 7 -30 15 -45 20 -38 21 -223 1 -267 -52 -123 -64 -142 -117 -191
-63 -59 -185 -126 -228 -126 -15 0 -43 -7 -61 -17 -30 -14 -82 -16 -444 -17
l-411 -1 -3 470 c-1 259 0 476 3 483 7 19 795 17 850 -3z m25 -1484 c69 -4
141 -13 160 -21 135 -51 174 -74 243 -145 45 -47 71 -94 98 -177 25 -78 27
-287 4 -332 -8 -15 -15 -36 -15 -45 0 -28 -76 -134 -125 -175 -55 -45 -146
-96 -174 -96 -10 0 -35 -7 -55 -15 -31 -13 -107 -15 -523 -13 l-488 3 -3 505
c-1 278 0 511 3 519 4 11 69 12 378 7 204 -4 428 -10 497 -15z"/>
<path d="M11482 9080 c-20 -30 -42 -85 -49 -122 -3 -15 -11 -33 -19 -39 -8 -6
-14 -21 -14 -33 0 -12 -7 -31 -15 -42 -8 -10 -15 -29 -15 -41 0 -12 -7 -28
-15 -37 -8 -8 -15 -22 -15 -31 0 -9 -6 -31 -14 -48 -7 -18 -23 -57 -35 -87
-31 -78 -36 -90 -55 -133 -9 -21 -16 -44 -16 -52 0 -13 -21 -61 -51 -117 -5
-10 -9 -26 -9 -36 0 -10 -7 -27 -15 -38 -8 -10 -15 -25 -15 -32 0 -15 -21 -67
-46 -115 -8 -16 -14 -33 -14 -39 0 -5 -7 -26 -16 -46 -8 -21 -22 -53 -31 -72
-8 -19 -21 -48 -29 -63 -8 -16 -14 -36 -14 -46 0 -9 -7 -26 -15 -37 -8 -10
-15 -25 -15 -32 0 -15 -21 -67 -46 -115 -8 -16 -14 -36 -14 -46 0 -9 -7 -26
-15 -37 -8 -10 -15 -25 -15 -32 0 -15 -21 -67 -46 -115 -8 -16 -14 -33 -14
-39 0 -11 -23 -66 -46 -111 -8 -16 -14 -36 -14 -46 0 -9 -7 -26 -15 -37 -8
-10 -15 -25 -15 -32 0 -15 -21 -67 -46 -115 -8 -16 -14 -35 -14 -44 0 -8 -6
-27 -14 -41 -8 -15 -21 -47 -31 -72 -9 -25 -23 -58 -30 -75 -7 -16 -20 -50
-30 -75 -9 -25 -23 -58 -31 -73 -8 -16 -14 -33 -14 -39 0 -11 -23 -66 -46
-111 -8 -16 -14 -35 -14 -44 0 -8 -6 -27 -13 -41 -8 -15 -21 -42 -30 -60 -9
-19 -17 -38 -17 -44 0 -11 -23 -66 -46 -111 -8 -16 -14 -36 -14 -46 0 -9 -7
-26 -15 -37 -8 -10 -15 -25 -15 -32 0 -15 -21 -67 -46 -115 -8 -16 -14 -33
-14 -39 0 -11 -23 -66 -46 -111 -8 -16 -14 -33 -14 -39 0 -5 -7 -26 -16 -46
-8 -21 -22 -53 -31 -72 -8 -19 -21 -48 -29 -63 -8 -16 -14 -33 -14 -38 0 -16
-41 -103 -58 -122 -9 -10 -12 -21 -6 -25 5 -4 170 -6 367 -4 357 3 357 3 357
30 0 16 7 37 15 48 8 10 15 27 15 37 0 11 6 31 14 45 26 52 46 103 46 120 0
10 7 27 15 38 8 10 15 26 15 34 0 8 7 28 15 44 8 15 15 35 15 43 0 8 6 27 14
41 8 15 21 47 31 72 9 25 23 59 30 75 7 17 16 39 18 50 6 21 32 95 45 130 5
11 19 43 33 70 24 50 24 50 758 50 642 0 735 -2 741 -15 4 -8 15 -29 24 -47 9
-17 16 -39 16 -50 0 -10 7 -27 15 -37 8 -11 15 -29 15 -40 0 -12 7 -30 15 -40
8 -11 15 -29 15 -40 0 -12 7 -30 15 -40 8 -11 15 -28 15 -37 0 -10 6 -30 14
-46 28 -57 46 -104 46 -123 0 -10 4 -21 10 -25 5 -3 14 -20 19 -38 5 -18 19
-57 31 -87 12 -30 24 -64 27 -75 3 -11 11 -33 18 -50 36 -81 45 -104 45 -119
0 -13 41 -16 358 -18 196 -2 361 0 366 4 5 4 -1 19 -13 34 -11 15 -21 32 -21
39 0 7 -7 26 -15 41 -8 16 -15 37 -15 46 0 9 -4 19 -9 22 -4 3 -18 34 -31 68
-12 35 -28 75 -36 90 -8 14 -14 33 -14 41 0 9 -6 28 -14 44 -18 35 -39 85 -61
143 -10 25 -24 59 -31 77 -8 17 -14 36 -14 41 0 6 -8 25 -17 44 -9 18 -22 45
-30 60 -7 14 -13 33 -13 41 0 9 -6 28 -14 44 -8 15 -22 48 -31 73 -17 44 -25
64 -59 143 -9 21 -16 47 -16 57 0 11 -4 20 -9 20 -5 0 -12 10 -16 23 -9 31
-30 84 -79 200 -9 21 -16 44 -16 52 0 7 -6 26 -14 42 -26 51 -46 101 -46 116
0 8 -7 20 -15 27 -8 7 -15 23 -15 36 0 12 -4 25 -9 28 -5 3 -12 18 -15 33 -4
16 -13 42 -20 58 -8 17 -22 50 -31 75 -10 25 -23 59 -31 75 -7 17 -20 46 -28
67 -9 20 -16 42 -16 50 0 7 -7 22 -15 32 -8 11 -15 28 -15 37 0 10 -6 30 -14
46 -23 45 -46 100 -46 111 0 6 -6 23 -14 39 -26 52 -46 104 -46 118 0 7 -8 28
-17 47 -9 18 -22 45 -30 60 -7 14 -13 36 -13 47 0 12 -4 21 -10 21 -5 0 -12
12 -16 28 -5 26 -23 76 -49 137 -7 17 -21 50 -30 75 -10 25 -24 59 -31 77 -8
17 -14 37 -14 45 0 7 -7 22 -15 32 -8 11 -15 30 -15 42 0 13 -4 25 -9 28 -5 3
-12 18 -15 33 -4 16 -13 42 -20 58 -8 17 -22 50 -31 75 -10 25 -24 59 -31 77
-8 17 -14 36 -14 41 0 6 -8 25 -17 44 -9 18 -22 45 -30 60 -7 14 -13 35 -13
45 0 10 -5 24 -11 30 -6 6 -14 26 -19 44 -19 71 -36 109 -51 114 -8 3 -160 6
-338 8 -322 2 -322 2 -339 -23z m363 -826 c6 -21 14 -45 19 -53 5 -7 12 -27
17 -45 8 -31 18 -60 60 -166 11 -30 23 -65 26 -77 3 -12 11 -28 19 -34 8 -6
14 -21 14 -33 0 -11 7 -30 15 -40 8 -11 15 -28 15 -37 0 -10 6 -30 14 -46 8
-15 22 -48 32 -73 9 -25 23 -59 30 -77 8 -17 14 -37 14 -45 0 -7 7 -22 15 -32
8 -11 15 -29 15 -41 0 -12 5 -26 11 -32 6 -6 14 -26 19 -44 11 -46 30 -98 46
-131 8 -14 14 -34 14 -45 0 -10 7 -27 15 -37 8 -11 15 -29 15 -40 0 -12 7 -30
15 -40 8 -11 15 -27 15 -37 0 -9 7 -30 15 -45 8 -16 15 -37 15 -46 0 -9 5 -20
10 -23 6 -3 10 -13 10 -21 0 -12 -75 -14 -526 -14 -526 0 -526 0 -519 33 4 17
14 44 21 59 8 15 14 35 14 46 0 10 7 27 15 38 8 10 15 28 15 40 0 11 7 29 15
40 8 10 15 28 15 39 0 11 6 32 14 47 8 15 17 40 21 57 4 17 11 33 16 36 5 4 9
16 9 29 0 12 7 31 15 42 8 10 15 28 15 40 0 11 7 29 15 40 8 10 15 27 15 36 0
10 6 32 14 50 8 18 21 51 29 73 43 115 73 189 93 228 8 16 14 36 14 46 0 9 7
26 15 37 8 10 15 29 15 41 0 12 7 28 15 37 8 8 15 25 15 38 0 13 7 33 15 44 8
10 15 28 15 40 0 11 7 29 15 40 8 10 15 29 15 42 0 31 19 64 33 59 7 -2 17
-21 22 -43z"/>
<path d="M3606 4226 c-50 -46 -50 -94 -2 -142 48 -48 92 -47 141 1 26 27 35
44 35 70 0 26 -9 43 -35 70 -48 47 -90 48 -139 1z"/>
<path d="M7356 4226 c-50 -46 -50 -94 -2 -142 48 -48 96 -48 142 2 47 49 46
91 -1 139 -48 47 -90 48 -139 1z"/>
<path d="M14555 4225 c-48 -49 -49 -93 -1 -141 26 -26 42 -34 71 -34 52 0 105
53 105 104 0 49 -56 106 -105 106 -26 0 -43 -9 -70 -35z"/>
<path d="M6964 4221 c-2 -2 -4 -85 -4 -183 0 -127 -3 -178 -11 -178 -7 0 -35
15 -63 34 -28 18 -64 36 -81 40 -16 4 -48 11 -70 16 -95 22 -232 -25 -309
-105 -153 -160 -149 -442 9 -601 74 -74 128 -96 245 -97 107 -2 154 12 226 70
23 18 44 29 48 26 3 -4 6 -26 6 -50 0 -44 0 -44 85 -41 86 3 86 3 86 537 0
535 0 535 -82 535 -44 1 -83 -1 -85 -3z m-156 -426 c86 -37 152 -142 152 -244
0 -150 -107 -271 -240 -271 -61 0 -114 23 -160 70 -129 130 -99 357 58 440 46
24 138 26 190 5z"/>
<path d="M11800 4220 c0 -3 -1 -243 -1 -535 0 -530 0 -530 86 -533 85 -3 85
-3 85 254 0 244 1 259 22 301 35 70 79 97 163 101 87 4 127 -15 173 -82 32
-48 32 -48 32 -313 0 -264 0 -264 86 -261 87 3 87 3 85 228 -2 252 -13 355
-43 413 -26 52 -111 133 -146 140 -15 3 -49 11 -77 16 -73 16 -170 -3 -235
-46 -19 -13 -40 -23 -47 -23 -9 0 -13 43 -15 171 -3 172 -3 172 -86 173 -45 0
-82 -1 -82 -4z"/>
<path d="M17374 4221 c-2 -2 -4 -244 -4 -538 0 -533 0 -533 85 -533 85 0 85 0
85 535 0 294 -3 535 -7 535 -72 4 -156 4 -159 1z"/>
<path d="M2800 4146 c-149 -33 -305 -180 -353 -335 -24 -77 -23 -250 2 -323
49 -143 177 -272 317 -318 84 -28 266 -30 335 -5 71 27 112 48 153 80 44 34
158 183 150 196 -7 13 -171 11 -195 -1 -10 -6 -26 -24 -34 -40 -40 -78 -185
-130 -300 -109 -240 44 -353 311 -235 555 88 182 359 233 501 94 25 -25 48
-50 50 -56 6 -17 197 -25 203 -9 6 18 -71 122 -128 172 -112 98 -293 137 -466
99z"/>
<path d="M10005 4152 c-3 -3 -5 -230 -5 -504 0 -498 0 -498 228 -498 235 0
294 7 367 47 73 39 123 108 139 193 13 75 -48 199 -120 242 -31 18 -48 58 -24
58 21 0 81 65 100 107 41 92 18 196 -58 270 -66 64 -110 74 -327 79 -104 3
-214 6 -243 8 -28 1 -54 0 -57 -2z m463 -156 c51 -27 74 -71 69 -134 -7 -103
-75 -136 -262 -130 -100 3 -100 3 -103 132 -1 72 0 136 3 144 8 22 248 12 293
-12z m12 -420 c62 -32 79 -62 80 -137 0 -77 -20 -111 -79 -137 -49 -20 -275
-30 -296 -12 -12 10 -15 40 -15 155 0 78 3 145 8 149 4 5 66 6 137 4 100 -3
138 -8 165 -22z"/>
<path d="M3970 3950 c-1 -3 -1 -183 -1 -400 0 -395 0 -395 86 -398 85 -3 85
-3 85 250 0 227 2 257 19 295 26 56 78 83 161 83 60 0 60 0 60 90 0 104 3 101
-94 71 -34 -10 -74 -32 -93 -50 -18 -17 -37 -31 -42 -31 -6 0 -11 21 -13 46
-3 45 -3 45 -86 47 -45 1 -82 0 -82 -3z"/>
<path d="M4794 3950 c-104 -15 -200 -75 -252 -158 -52 -81 -67 -135 -66 -252
0 -100 2 -108 37 -180 20 -41 42 -82 49 -90 24 -29 103 -88 128 -95 14 -4 31
-12 38 -18 7 -5 65 -10 130 -11 108 0 121 2 173 27 63 31 141 104 159 148 7
16 17 29 22 29 5 0 8 12 6 28 -2 18 -9 27 -20 26 -10 0 -48 -1 -85 -2 -68 -2
-68 -2 -91 -42 -62 -108 -241 -113 -323 -8 -49 63 -53 78 -54 193 0 119 10
150 64 208 43 47 79 60 156 59 58 -1 75 -5 110 -29 22 -16 47 -43 55 -60 15
-33 15 -33 102 -33 48 0 89 4 92 8 7 12 -33 84 -76 135 -48 58 -113 95 -196
112 -73 16 -82 16 -158 5z"/>
<path d="M5646 3950 c-127 -23 -228 -109 -286 -246 -19 -45 -21 -66 -17 -165
2 -67 9 -129 18 -149 24 -61 77 -135 121 -171 72 -57 112 -71 218 -73 102 -1
150 13 216 61 48 35 66 31 62 -14 -3 -38 -3 -38 85 -41 87 -3 87 -3 87 396 0
219 -2 401 -4 403 -2 2 -42 2 -88 -1 -83 -5 -83 -5 -80 -41 5 -51 -12 -56 -62
-20 -76 54 -178 77 -270 61z m210 -169 c35 -20 62 -47 85 -83 33 -50 34 -56
34 -148 -1 -107 -16 -149 -78 -208 -54 -52 -161 -74 -231 -48 -46 17 -109 74
-131 116 -27 52 -38 145 -25 202 16 69 31 96 73 136 71 69 186 82 273 33z"/>
<path d="M7995 3953 c-120 -18 -235 -101 -281 -203 -8 -19 -21 -46 -27 -59
-15 -31 -15 -264 0 -282 6 -8 14 -25 18 -39 12 -38 65 -113 105 -147 70 -59
124 -77 235 -77 107 0 147 13 213 69 42 36 52 32 52 -20 0 -45 0 -45 90 -45
90 0 90 0 88 401 -3 402 -3 402 -88 402 -85 0 -85 0 -88 -39 -4 -53 -17 -63
-45 -36 -13 12 -27 22 -32 22 -5 0 -16 6 -24 13 -30 26 -156 49 -216 40z m174
-163 c49 -25 96 -72 121 -121 25 -49 28 -178 4 -234 -70 -169 -268 -207 -387
-75 -119 132 -83 364 67 430 56 25 146 25 195 0z"/>
<path d="M9015 3943 c-33 -9 -75 -27 -92 -41 -40 -30 -65 -23 -61 15 3 28 3
28 -79 31 -83 3 -83 3 -84 -383 -1 -212 -2 -391 -3 -397 -1 -10 22 -13 82 -13
83 0 83 0 85 255 2 290 6 306 86 368 38 29 49 32 109 32 50 0 76 -5 101 -21
90 -55 101 -98 101 -401 0 -239 0 -239 81 -236 81 3 81 3 80 282 -2 222 -5
284 -16 307 -8 15 -15 35 -15 43 0 9 -26 42 -57 74 -43 43 -71 63 -108 74 -80
26 -144 29 -210 11z"/>
<path d="M11190 3950 c-95 -16 -149 -42 -207 -98 -166 -162 -164 -448 6 -610
62 -60 98 -77 196 -93 127 -22 240 5 322 76 43 37 113 132 113 154 0 7 -29 11
-90 11 -86 0 -91 -1 -102 -25 -27 -60 -135 -102 -215 -85 -92 21 -178 104
-171 167 3 28 3 28 302 31 299 2 299 2 293 100 -5 105 -13 128 -65 213 -73
116 -236 184 -382 159z m169 -160 c65 -32 109 -98 99 -147 -3 -17 -18 -18
-188 -21 -209 -3 -230 0 -230 29 0 41 58 116 115 147 35 19 161 15 204 -8z"/>
<path d="M12993 3950 c-131 -27 -230 -111 -282 -240 -23 -56 -26 -254 -5 -304
36 -87 51 -111 101 -162 76 -77 125 -96 248 -97 106 -1 143 10 221 69 37 28
55 17 51 -32 -2 -29 -2 -29 86 -32 87 -3 87 -3 85 399 -3 401 -3 401 -80 401
-43 -1 -83 -1 -88 -1 -6 -1 -8 -16 -4 -40 9 -53 -8 -60 -60 -22 -75 53 -188
78 -273 61z m195 -159 c48 -24 88 -65 115 -116 30 -57 30 -202 0 -260 -79
-150 -257 -180 -374 -63 -125 125 -93 357 60 438 49 26 149 26 199 1z"/>
<path d="M13627 3954 c-12 -13 -7 -51 8 -64 8 -7 15 -22 15 -34 0 -11 7 -30
15 -40 8 -11 15 -29 15 -40 0 -12 7 -30 15 -40 8 -11 15 -29 15 -40 0 -12 7
-30 15 -40 8 -11 15 -28 15 -37 0 -10 6 -30 14 -46 8 -15 22 -47 30 -70 40
-109 60 -161 104 -273 29 -75 29 -75 131 -78 90 -2 102 -1 107 15 3 10 12 35
20 56 22 59 43 114 58 155 37 99 49 129 62 155 8 16 14 35 14 44 0 8 6 27 14
41 13 25 22 47 60 150 31 83 59 148 68 159 5 7 7 16 4 21 -7 11 -168 3 -180
-9 -10 -9 -69 -173 -85 -237 -5 -18 -13 -38 -19 -45 -5 -7 -12 -23 -15 -37 -5
-27 -22 -78 -42 -125 -23 -57 -37 -100 -42 -128 -3 -15 -9 -30 -14 -32 -11 -8
-49 68 -49 98 0 14 -7 30 -15 37 -8 7 -15 24 -15 39 0 15 -5 32 -11 38 -6 6
-14 26 -19 44 -5 19 -18 59 -30 89 -11 30 -32 87 -45 125 -48 144 -44 140
-117 140 -34 0 -70 4 -79 8 -8 4 -18 4 -22 1z"/>
<path d="M15210 3950 c-104 -16 -184 -61 -250 -140 -65 -78 -94 -191 -83 -320
12 -131 100 -258 221 -315 50 -24 69 -28 163 -28 105 -1 125 3 218 47 45 21
131 116 157 174 47 103 49 246 7 347 -69 166 -252 265 -433 235z m160 -160
c123 -63 173 -213 118 -355 -63 -165 -273 -208 -386 -80 -21 24 -44 61 -50 83
-16 53 -15 168 2 217 19 55 71 114 120 136 56 25 145 25 196 -1z"/>
<path d="M15844 3951 c-2 -2 -4 -184 -4 -403 0 -398 0 -398 84 -398 47 0 86 4
88 10 2 5 0 94 -4 197 -8 200 1 306 29 354 26 43 81 69 149 69 59 0 59 0 59
90 0 83 -1 90 -20 90 -38 -1 -126 -37 -154 -64 -41 -39 -61 -35 -61 13 0 39 0
39 -81 43 -44 2 -83 1 -85 -1z"/>
<path d="M16670 3954 c-100 -17 -192 -71 -247 -147 -47 -64 -63 -104 -73 -187
-19 -153 19 -281 115 -376 75 -76 128 -96 250 -97 107 -1 150 13 218 69 36 30
47 24 47 -27 0 -39 0 -39 90 -39 90 0 90 0 88 401 -3 401 -3 401 -88 401 -85
1 -85 1 -87 -36 -2 -52 -17 -65 -45 -40 -63 56 -186 91 -268 78z m168 -160
c47 -19 87 -57 120 -113 22 -38 25 -55 25 -130 0 -103 -24 -163 -84 -215 -98
-83 -236 -70 -327 31 -76 85 -82 255 -12 353 12 17 45 44 73 60 61 35 143 40
205 14z"/>
<path d="M3590 3550 c0 -401 0 -401 81 -398 87 3 82 -42 79 791 0 4 -36 7 -80
7 -80 0 -80 0 -80 -400z"/>
<path d="M7339 3565 c-1 -212 -2 -391 -3 -397 -1 -10 22 -13 84 -13 75 0 85 2
84 18 0 9 -1 188 -2 397 -2 380 -2 380 -82 380 -80 0 -80 0 -81 -385z"/>
<path d="M14547 3944 c-4 -4 -7 -185 -7 -401 0 -394 0 -394 80 -391 81 3 81 3
81 398 0 395 0 395 -73 398 -41 1 -77 0 -81 -4z"/>
<path d="M10035 2068 c-44 -52 -49 -71 -30 -109 38 -73 100 -89 161 -43 30 24
34 31 34 75 0 41 -5 52 -32 78 -46 44 -96 43 -133 -1z"/>
<path d="M13375 2082 c-27 -23 -55 -68 -55 -87 0 -20 28 -65 54 -87 34 -28 86
-23 124 13 27 25 32 37 32 73 0 38 -5 48 -35 75 -41 35 -88 41 -120 13z"/>
<path d="M8040 2062 c-7 -3 -10 -186 -10 -538 0 -535 0 -535 80 -532 81 3 81
3 83 536 1 349 -1 532 -8 533 -35 3 -136 3 -145 1z"/>
<path d="M11815 1999 c-22 -4 -59 -11 -82 -15 -24 -3 -48 -13 -54 -20 -6 -8
-17 -14 -23 -14 -21 0 -94 -84 -113 -130 -21 -54 -23 -151 -4 -200 8 -19 30
-52 50 -73 48 -51 94 -71 283 -127 128 -37 178 -80 178 -153 0 -87 -72 -146
-178 -147 -87 0 -152 45 -171 119 -7 24 -10 25 -94 26 -87 2 -87 2 -87 -26 0
-39 28 -96 69 -144 69 -80 147 -109 286 -107 117 1 172 18 241 76 67 56 97
122 96 217 0 84 -9 106 -71 172 -43 45 -87 66 -240 113 -172 52 -200 75 -201
162 0 64 9 84 54 111 25 16 50 21 97 21 77 0 114 -19 156 -82 29 -43 29 -43
116 -46 81 -3 87 -1 87 17 0 56 -76 165 -142 204 -66 38 -183 59 -253 46z"/>
<path d="M5410 1986 c-6 -6 -10 -18 -10 -29 0 -10 -5 -28 -12 -40 -6 -12 -15
-35 -19 -52 -4 -16 -17 -55 -29 -85 -11 -30 -32 -86 -45 -125 -13 -38 -33 -95
-45 -125 -12 -30 -25 -68 -30 -85 -5 -16 -18 -55 -30 -85 -12 -30 -24 -66 -27
-80 -3 -14 -12 -34 -19 -45 -8 -11 -14 -29 -14 -40 0 -12 -7 -30 -15 -41 -8
-10 -15 -26 -15 -35 0 -9 -9 -36 -20 -60 -31 -68 -30 -69 64 -69 90 0 100 5
109 55 7 45 45 137 59 147 22 14 394 10 406 -4 5 -7 24 -53 41 -102 17 -49 32
-90 33 -92 2 -1 41 -4 88 -5 72 -2 85 0 88 14 2 10 -4 24 -12 33 -9 8 -16 25
-16 38 0 12 -5 27 -11 33 -6 6 -14 26 -19 44 -5 19 -18 59 -30 89 -12 30 -24
66 -27 80 -3 14 -10 30 -15 37 -6 7 -14 27 -18 45 -5 18 -18 58 -30 88 -11 30
-32 87 -45 125 -13 39 -33 95 -45 125 -11 30 -32 87 -45 127 -44 131 -39 127
-144 128 -51 0 -96 -4 -101 -9z m123 -265 c9 -16 17 -40 17 -53 0 -12 7 -32
15 -42 8 -11 15 -29 15 -41 0 -11 6 -29 14 -40 7 -11 16 -31 19 -45 3 -14 14
-50 26 -80 36 -94 42 -90 -125 -90 -146 0 -146 0 -141 38 4 36 16 73 42 137
20 50 37 99 42 125 3 14 12 34 19 45 8 11 14 32 14 47 0 37 21 36 43 -1z"/>
<path d="M13749 1973 c-1 -5 0 -45 1 -91 2 -78 0 -82 -22 -91 -13 -5 -30 -5
-41 1 -29 15 -35 2 -34 -72 1 -69 1 -69 46 -72 46 -3 46 -3 52 -248 3 -135 9
-258 14 -275 14 -50 36 -75 89 -102 45 -24 63 -27 155 -27 105 -1 105 -1 106
67 0 37 -2 67 -5 68 -3 0 -37 1 -76 2 -118 3 -115 -6 -112 276 3 236 3 236 98
241 95 5 95 5 95 70 0 65 0 65 -82 66 -46 1 -89 4 -98 8 -12 4 -15 24 -15 96
0 90 0 90 -85 90 -47 0 -85 -3 -86 -7z"/>
<path d="M6124 1791 c-2 -2 -4 -184 -4 -403 0 -398 0 -398 84 -398 47 0 86 3
88 8 2 4 1 97 -3 207 -10 302 11 384 107 426 94 40 200 15 249 -59 39 -59 46
-118 44 -356 -1 -221 -1 -221 77 -224 79 -3 79 -3 76 283 -3 273 -5 289 -27
338 -49 113 -156 179 -285 179 -79 0 -140 -17 -191 -52 -34 -25 -49 -19 -49
20 0 28 0 28 -81 32 -44 2 -83 1 -85 -1z"/>
<path d="M7315 1791 c-46 -8 -141 -51 -170 -78 -37 -33 -91 -107 -108 -148
-57 -136 -37 -315 50 -436 72 -101 151 -140 283 -143 105 -1 152 13 221 66 50
38 59 36 59 -17 0 -46 0 -46 85 -43 86 3 86 3 88 401 1 218 -1 397 -5 398 -5
0 -43 0 -85 1 -78 0 -78 0 -81 -46 -2 -25 -8 -46 -13 -46 -6 0 -30 13 -54 30
-74 51 -184 76 -270 61z m193 -160 c87 -45 141 -136 142 -238 1 -238 -241
-361 -400 -202 -131 131 -93 372 70 443 50 22 143 20 188 -3z"/>
<path d="M8310 1784 c0 -9 6 -25 13 -33 13 -15 20 -33 62 -141 10 -25 23 -58
30 -75 8 -16 27 -64 43 -105 17 -41 50 -124 75 -185 25 -60 54 -133 66 -162
31 -77 29 -92 -36 -243 -9 -19 -21 -48 -28 -65 -6 -16 -27 -60 -45 -98 -18
-37 -31 -70 -28 -72 3 -3 33 -1 68 4 35 4 71 6 81 4 22 -6 37 18 84 132 20 50
43 102 51 117 8 14 14 31 14 37 0 6 13 39 29 73 15 35 50 115 76 178 26 63 54
131 62 150 17 37 37 86 57 135 14 32 34 79 58 135 8 19 23 52 32 73 9 21 16
44 16 51 0 8 7 19 15 26 8 7 15 25 15 41 0 29 0 29 -78 29 -80 0 -102 -9 -102
-42 0 -9 -6 -32 -14 -50 -8 -18 -22 -53 -31 -78 -10 -25 -23 -58 -30 -75 -7
-16 -21 -50 -30 -75 -9 -25 -23 -58 -31 -73 -8 -16 -14 -35 -14 -42 0 -7 -6
-26 -14 -42 -7 -15 -20 -41 -28 -58 -17 -37 -42 -39 -46 -5 -2 14 -9 39 -16
55 -34 75 -46 107 -46 120 0 7 -6 26 -14 42 -8 15 -22 47 -30 71 -35 92 -49
128 -62 160 -8 18 -14 41 -14 52 0 28 -18 35 -90 36 -36 0 -77 4 -92 9 -23 6
-28 4 -28 -11z"/>
<path d="M9475 1794 c-126 -29 -170 -53 -214 -115 -59 -80 -48 -183 24 -254
46 -43 74 -56 234 -106 149 -46 182 -80 146 -149 -12 -23 -28 -33 -70 -45 -50
-15 -60 -15 -109 -1 -57 17 -96 52 -96 87 0 17 -9 19 -75 21 -41 0 -81 1 -87
2 -41 3 6 -120 64 -169 18 -16 58 -40 88 -54 48 -23 68 -26 160 -25 87 0 114
4 155 23 96 43 145 112 145 206 0 98 -60 162 -194 207 -143 48 -222 81 -238
100 -44 50 1 124 77 128 82 5 104 0 139 -30 19 -17 36 -43 38 -57 3 -26 4 -26
91 -27 77 -1 87 0 87 16 0 10 -4 26 -9 36 -5 9 -19 37 -30 62 -24 53 -95 110
-156 128 -48 14 -142 23 -170 16z"/>
<path d="M10024 1791 c-2 -2 -4 -184 -4 -403 0 -398 0 -398 83 -398 82 0 82 0
82 399 0 400 0 400 -78 403 -43 2 -81 1 -83 -1z"/>
<path d="M10630 1794 c-110 -19 -169 -50 -221 -115 -30 -39 -33 -48 -33 -110
1 -50 6 -76 22 -101 43 -69 79 -89 272 -149 106 -33 160 -68 160 -104 0 -42
-30 -74 -85 -90 -50 -15 -60 -15 -109 -1 -54 16 -106 61 -106 92 0 11 -16 14
-69 14 -38 0 -76 3 -85 6 -53 20 0 -114 69 -173 72 -62 116 -76 240 -76 93 -1
118 2 160 22 97 43 139 104 139 201 0 128 -53 172 -297 249 -93 29 -124 46
-141 79 -13 24 -12 31 7 65 25 44 56 54 154 49 40 -2 90 -44 101 -84 7 -30 7
-30 90 -32 82 -2 82 -2 82 26 0 51 -48 135 -99 171 -65 46 -177 74 -251 61z"/>
<path d="M12971 1791 c-9 -6 -11 -69 -9 -267 2 -251 2 -260 -20 -300 -45 -82
-138 -118 -235 -90 -57 17 -94 49 -120 108 -14 30 -17 75 -17 290 0 254 0 254
-85 255 -85 1 -85 1 -85 -130 1 -73 5 -205 9 -294 9 -156 10 -163 42 -223 34
-65 64 -93 138 -130 37 -18 62 -22 140 -23 99 0 132 9 190 54 29 23 41 17 41
-22 0 -29 0 -29 90 -29 90 0 90 0 88 403 -3 396 -3 402 -23 399 -53 -9 -101
-9 -115 -2 -9 5 -22 5 -29 1z"/>
<path d="M14555 1794 c-139 -18 -268 -115 -313 -234 -34 -88 -34 -251 0 -341
33 -89 112 -169 207 -209 45 -20 72 -24 165 -24 108 -1 113 0 174 33 60 33
152 120 152 145 0 6 10 20 21 30 35 30 7 42 -88 38 -81 -3 -82 -4 -101 -36
-27 -45 -102 -80 -168 -80 -102 2 -202 79 -207 161 -2 38 -2 38 298 43 300 5
300 5 297 65 -9 146 -41 226 -121 305 -43 42 -72 60 -121 77 -68 23 -144 33
-195 27z m163 -168 c48 -30 68 -53 87 -100 27 -64 21 -66 -200 -66 -212 0
-221 3 -206 56 14 50 34 75 81 105 40 25 54 29 123 29 64 0 84 -4 115 -24z"/>
<path d="M13349 1405 c-1 -212 -2 -391 -3 -397 -1 -10 22 -13 82 -13 83 0 83
0 83 395 0 395 0 395 -81 398 -80 3 -80 3 -81 -383z"/>
</g>
</svg>
